<?xml version="1.0" encoding="utf-8"?>
<!-- Generator: Adobe Illustrator 23.0.2, SVG Export Plug-In . SVG Version: 6.00 Build 0)  -->
<svg version="1.1" id="Layer_1" xmlns="http://www.w3.org/2000/svg" xmlns:xlink="http://www.w3.org/1999/xlink" x="0px" y="0px"
	 viewBox="0 0 1600 450" style="enable-background:new 0 0 1600 450;" xml:space="preserve">
<style type="text/css">
	.st0{fill:#D1D1D1;}
	.st1{fill:#FFFFFF;stroke:#D1D1D1;stroke-miterlimit:10;}
	.st2{fill:#9D9D9C;}
	.st3{opacity:0.2;fill:#9D9D9C;}
	.st4{fill:#FDFEFF;stroke:#D1D1D1;stroke-miterlimit:10;}
	.st5{fill:#DADADA;}
	.st6{fill:#DADADA;stroke:#FFFFFF;stroke-miterlimit:10;}
	.st7{fill:#EDEDED;}
	.st8{opacity:0.9;}
	.st9{opacity:0.5;fill:#D1D1D1;}
	.st10{fill:#FFFFFF;}
	.st11{opacity:0.3;fill:#9D9D9C;}
	.st12{opacity:0.5;fill:#9D9D9C;}
	.st13{opacity:0.7;}
	.st14{fill:#D1D1D1;stroke:#D1D1D1;stroke-miterlimit:10;}
</style>
<g>
	<path class="st0" d="M40.2,142.8h9.3v-13.3c0-5,4.1-9.2,9.2-9.2H90c3.7-1,3.6-8.7,0-9.3H58.6c-10.2,0-18.5,8.3-18.5,18.5V142.8z"/>
	<path class="st1" d="M108.5,95.9v53.8c-3.2-0.1-19.6,0-19.6,0V95.9c0-5.3,4.3-6.3,9.7-6.3h0.2C104.2,89.6,108.5,90.6,108.5,95.9z"
		/>
	<path class="st0" d="M340.9,217.2h-52.6v-5h52.6C345.8,212.1,348.6,217.2,340.9,217.2z"/>
	<path class="st0" d="M338,228.9h-51.6v-5H338C345.2,223.8,348,228.9,338,228.9z"/>
	<g>
		<path class="st2" d="M1319.6,175.5l0,23.1c0,0.8-0.7,1.5-1.5,1.5l-11,0c-0.8,0-1.5-0.7-1.5-1.5l0-23.1c0-0.9,0.7-2.6,1.6-2.6
			l10.8,0C1318.9,172.9,1319.6,174.7,1319.6,175.5z"/>
		<path class="st2" d="M1318.6,172.3c0,0.3-0.3,0.6-0.6,0.6l-10.8,0c-0.3,0-0.6-0.3-0.6-0.6l0,0c0-0.3,0.3-0.6,0.6-0.6l10.8,0
			C1318.3,171.8,1318.6,172,1318.6,172.3L1318.6,172.3z"/>
		<g>
			<polygon class="st2" points="1319.6,180.7 1319.6,188.1 1305.7,190.9 1305.6,183.5 			"/>
			<polygon class="st2" points="1319.6,188.6 1319.6,189.9 1305.7,192.8 1305.7,191.4 			"/>
			<polygon class="st2" points="1319.6,178.9 1319.6,180.2 1305.6,183.1 1305.6,181.7 			"/>
		</g>
		<path class="st3" d="M1308.4,198.7l0-23.1c0-0.6,0.5-1.6,0.7-1.8l-2.1,0c-0.3,0.2-0.7,1.2-0.7,1.8l0,23.1c0,0.3,0.3,0.6,0.6,0.6
			l2.1,0C1308.7,199.3,1308.4,199,1308.4,198.7z"/>
		<path class="st3" d="M1309.9,198.7l0-23.1c0-0.6,0.5-1.6,0.7-1.8l-1,0c-0.3,0.2-0.7,1.2-0.7,1.8l0,23.1c0,0.3,0.3,0.6,0.6,0.6l1,0
			C1310.1,199.3,1309.9,199,1309.9,198.7z"/>
		<path class="st2" d="M1339.4,175.5l0,23.1c0,0.8-0.7,1.5-1.5,1.5l-11,0c-0.8,0-1.5-0.7-1.5-1.5l0-23.1c0-0.9,0.7-2.6,1.6-2.6
			l10.8,0C1338.7,172.9,1339.4,174.6,1339.4,175.5z"/>
		<path class="st2" d="M1338.3,172.3c0,0.3-0.3,0.6-0.6,0.6l-10.8,0c-0.3,0-0.6-0.3-0.6-0.6l0,0c0-0.3,0.3-0.6,0.6-0.6l10.8,0
			C1338.1,171.7,1338.3,172,1338.3,172.3L1338.3,172.3z"/>
		<g>
			<polygon class="st2" points="1339.4,180.6 1339.4,188 1325.4,190.9 1325.4,183.5 			"/>
			<polygon class="st2" points="1339.4,188.5 1339.4,189.9 1325.4,192.7 1325.4,191.4 			"/>
			<polygon class="st2" points="1339.4,178.8 1339.4,180.2 1325.4,183 1325.4,181.7 			"/>
		</g>
		<path class="st3" d="M1328.1,198.6l0-23.1c0-0.6,0.5-1.6,0.7-1.8l-2.1,0c-0.3,0.2-0.7,1.2-0.7,1.8l0,23.1c0,0.3,0.3,0.6,0.6,0.6
			l2.1,0C1328.4,199.2,1328.1,199,1328.1,198.6z"/>
		<path class="st3" d="M1329.6,198.6l0-23.1c0-0.6,0.5-1.6,0.7-1.8l-1,0c-0.3,0.2-0.7,1.2-0.7,1.8l0,23.1c0,0.3,0.3,0.6,0.6,0.6l1,0
			C1329.9,199.2,1329.6,199,1329.6,198.6z"/>
		<path class="st2" d="M1359.1,175.5l0,23.1c0,0.8-0.7,1.5-1.5,1.5l-11,0c-0.8,0-1.5-0.7-1.5-1.5l0-23.1c0-0.9,0.7-2.6,1.6-2.6
			l10.8,0C1358.4,172.8,1359.1,174.6,1359.1,175.5z"/>
		<path class="st2" d="M1358.1,172.3c0,0.3-0.3,0.6-0.6,0.6l-10.8,0c-0.3,0-0.6-0.3-0.6-0.6l0,0c0-0.3,0.3-0.6,0.6-0.6l10.8,0
			C1357.8,171.7,1358.1,172,1358.1,172.3L1358.1,172.3z"/>
		<g>
			<polygon class="st2" points="1359.1,180.6 1359.2,188 1345.2,190.8 1345.2,183.4 			"/>
			<polygon class="st2" points="1359.2,188.5 1359.2,189.8 1345.2,192.7 1345.2,191.3 			"/>
			<polygon class="st2" points="1359.1,178.8 1359.1,180.1 1345.2,183 1345.2,181.6 			"/>
		</g>
		<path class="st3" d="M1347.9,198.6l0-23.1c0-0.6,0.5-1.6,0.7-1.8l-2.1,0c-0.3,0.2-0.7,1.2-0.7,1.8l0,23.1c0,0.3,0.3,0.6,0.6,0.6
			l2.1,0C1348.2,199.2,1347.9,198.9,1347.9,198.6z"/>
		<path class="st3" d="M1349.4,198.6l0-23.1c0-0.6,0.5-1.6,0.7-1.8l-1,0c-0.3,0.2-0.7,1.2-0.7,1.8l0,23.1c0,0.3,0.3,0.6,0.6,0.6l1,0
			C1349.7,199.2,1349.4,198.9,1349.4,198.6z"/>
		<path class="st2" d="M1378.9,175.4l0,23.1c0,0.8-0.7,1.5-1.5,1.5l-11,0c-0.8,0-1.5-0.7-1.5-1.5l0-23.1c0-0.9,0.7-2.6,1.6-2.6
			l10.8,0C1378.2,172.8,1378.9,174.5,1378.9,175.4z"/>
		<path class="st2" d="M1377.9,172.2c0,0.3-0.3,0.6-0.6,0.6l-10.8,0c-0.3,0-0.6-0.3-0.6-0.6l0,0c0-0.3,0.3-0.6,0.6-0.6l10.8,0
			C1377.6,171.7,1377.9,171.9,1377.9,172.2L1377.9,172.2z"/>
		<g>
			<polygon class="st2" points="1378.9,180.6 1378.9,188 1365,190.8 1364.9,183.4 			"/>
			<polygon class="st2" points="1378.9,188.4 1378.9,189.8 1365,192.6 1365,191.3 			"/>
			<polygon class="st2" points="1378.9,178.7 1378.9,180.1 1364.9,182.9 1364.9,181.6 			"/>
		</g>
		<path class="st3" d="M1367.7,198.5l0-23.1c0-0.6,0.5-1.6,0.7-1.8l-2.1,0c-0.3,0.2-0.7,1.2-0.7,1.8l0,23.1c0,0.3,0.3,0.6,0.6,0.6
			l2.1,0C1368,199.2,1367.7,198.9,1367.7,198.5z"/>
		<path class="st3" d="M1369.2,198.5l0-23.1c0-0.6,0.5-1.6,0.7-1.8l-1,0c-0.3,0.2-0.7,1.2-0.7,1.8l0,23.1c0,0.3,0.3,0.6,0.6,0.6l1,0
			C1369.4,199.2,1369.2,198.9,1369.2,198.5z"/>
		<path class="st2" d="M1398.7,175.4l0,23.1c0,0.8-0.7,1.5-1.5,1.5l-11,0c-0.8,0-1.5-0.7-1.5-1.5l0-23.1c0-0.9,0.7-2.6,1.6-2.6
			l10.8,0C1397.9,172.8,1398.7,174.5,1398.7,175.4z"/>
		<path class="st2" d="M1397.6,172.2c0,0.3-0.3,0.6-0.6,0.6l-10.8,0c-0.3,0-0.6-0.3-0.6-0.6l0,0c0-0.3,0.3-0.6,0.6-0.6l10.8,0
			C1397.4,171.6,1397.6,171.9,1397.6,172.2L1397.6,172.2z"/>
		<g>
			<polygon class="st2" points="1398.7,180.5 1398.7,187.9 1384.7,190.8 1384.7,183.4 			"/>
			<polygon class="st2" points="1398.7,188.4 1398.7,189.8 1384.7,192.6 1384.7,191.2 			"/>
			<polygon class="st2" points="1398.7,178.7 1398.7,180.1 1384.7,182.9 1384.7,181.5 			"/>
		</g>
		<path class="st3" d="M1387.4,198.5l0-23.1c0-0.6,0.5-1.6,0.7-1.8l-2.1,0c-0.3,0.2-0.7,1.2-0.7,1.8l0,23.1c0,0.3,0.3,0.6,0.6,0.6
			l2.1,0C1387.7,199.1,1387.4,198.9,1387.4,198.5z"/>
		<path class="st3" d="M1388.9,198.5l0-23.1c0-0.6,0.5-1.6,0.7-1.8l-1,0c-0.3,0.2-0.7,1.2-0.7,1.8l0,23.1c0,0.3,0.3,0.6,0.6,0.6l1,0
			C1389.2,199.1,1388.9,198.8,1388.9,198.5z"/>
		<path class="st2" d="M1418.4,175.3l0,23.1c0,0.8-0.7,1.5-1.5,1.5l-11,0c-0.8,0-1.5-0.7-1.5-1.5l0-23.1c0-0.9,0.7-2.6,1.6-2.6
			l10.8,0C1417.7,172.7,1418.4,174.5,1418.4,175.3z"/>
		<path class="st2" d="M1417.4,172.2c0,0.3-0.3,0.6-0.6,0.6l-10.8,0c-0.3,0-0.6-0.3-0.6-0.6l0,0c0-0.3,0.3-0.6,0.6-0.6l10.8,0
			C1417.1,171.6,1417.4,171.8,1417.4,172.2L1417.4,172.2z"/>
		<polygon class="st2" points="1418.4,180.5 1418.5,187.9 1404.5,190.7 1404.5,183.3 		"/>
		<polygon class="st2" points="1418.5,188.4 1418.5,189.7 1404.5,192.6 1404.5,191.2 		"/>
		<polygon class="st2" points="1418.4,178.7 1418.4,180 1404.5,182.9 1404.5,181.5 		"/>
		<path class="st3" d="M1407.2,198.5l0-23.1c0-0.6,0.5-1.6,0.7-1.8l-2.1,0c-0.3,0.2-0.7,1.2-0.7,1.8l0,23.1c0,0.3,0.3,0.6,0.6,0.6
			l2.1,0C1407.5,199.1,1407.2,198.8,1407.2,198.5z"/>
		<path class="st3" d="M1408.7,198.5l0-23.1c0-0.6,0.5-1.6,0.7-1.8l-1,0c-0.3,0.2-0.7,1.2-0.7,1.8l0,23.1c0,0.3,0.3,0.6,0.6,0.6l1,0
			C1409,199.1,1408.7,198.8,1408.7,198.5z"/>
		<path class="st2" d="M1438.2,175.3l0,23.1c0,0.8-0.7,1.5-1.5,1.5l-11,0c-0.8,0-1.5-0.7-1.5-1.5l0-23.1c0-0.9,0.7-2.6,1.6-2.6
			l10.8,0C1437.5,172.7,1438.2,174.4,1438.2,175.3z"/>
		<path class="st2" d="M1437.2,172.1c0,0.3-0.3,0.6-0.6,0.6l-10.8,0c-0.3,0-0.6-0.3-0.6-0.6l0,0c0-0.3,0.3-0.6,0.6-0.6l10.8,0
			C1436.9,171.5,1437.2,171.8,1437.2,172.1L1437.2,172.1z"/>
		<polygon class="st2" points="1438.2,180.4 1438.2,187.8 1424.2,190.7 1424.2,183.3 		"/>
		<polygon class="st2" points="1438.2,188.3 1438.2,189.7 1424.3,192.5 1424.3,191.2 		"/>
		<polygon class="st2" points="1438.2,178.6 1438.2,180 1424.2,182.8 1424.2,181.5 		"/>
		<path class="st3" d="M1427,198.4l0-23.1c0-0.6,0.5-1.6,0.7-1.8l-2.1,0c-0.3,0.2-0.7,1.2-0.7,1.8l0,23.1c0,0.3,0.3,0.6,0.6,0.6
			l2.1,0C1427.3,199.1,1427,198.8,1427,198.4z"/>
		<path class="st3" d="M1428.5,198.4l0-23.1c0-0.6,0.5-1.6,0.7-1.8l-1,0c-0.3,0.2-0.7,1.2-0.7,1.8l0,23.1c0,0.3,0.3,0.6,0.6,0.6l1,0
			C1428.7,199,1428.5,198.8,1428.5,198.4z"/>
	</g>
	<path class="st0" d="M606,88.5h-9.3V75.2c0-5-4.1-9.2-9.2-9.2h-31.4c-3.7-1-3.6-8.7,0-9.3h31.4c10.2,0,18.5,8.3,18.5,18.5V88.5z"/>
	<path class="st1" d="M556,41.6v53.8c-3.2-0.1-19.6,0-19.6,0V41.6c0-5.3,4.3-6.3,9.7-6.3h0.2C551.6,35.3,556,36.2,556,41.6z"/>
	<path class="st0" d="M1251.3,288.7c0-11.1-28.1-20.1-62.7-20.1c-34.6,0-62.7,9-62.7,20.1c0,11.1,28.1,20.1,62.7,20.1
		C1223.2,308.8,1251.3,299.8,1251.3,288.7z"/>
	<g>
		<rect x="1124" y="292.2" class="st0" width="9.6" height="33.2"/>
		<rect x="1243.5" y="292.2" class="st0" width="9.6" height="33.2"/>
	</g>
	<rect x="1118.9" y="322.1" class="st0" width="19.8" height="3.4"/>
	<rect x="1238.4" y="322.1" class="st0" width="19.8" height="3.4"/>
	<path class="st4" d="M1258.7,122.8c0-9.4-26.5-17.1-60.7-18.3V98h-18.6v6.5c-34.3,1.2-60.7,8.9-60.7,18.3v4c0,0.4-0.1,0.7-0.1,1.1
		v169h140.2v-169c0-0.4,0-0.7-0.1-1.1h0.1V122.8z"/>
	<polygon class="st0" points="1279.1,264.1 1260.9,264.1 1260.9,259.1 1274.1,259.1 1274.1,78.4 1299.4,78.4 1299.4,83.4 
		1279.1,83.4 	"/>
	<polygon class="st0" points="1286.4,288.6 1260.9,288.6 1260.9,283.6 1281.3,283.6 1281.3,90.6 1299.4,90.6 1299.4,95.6 
		1286.4,95.6 	"/>
	<path class="st0" d="M624.4,275.1h-2.9v-5h2.9c3.1,0,5.7-2.6,5.7-5.7V50.7c0-5.5,4.5-10,10-10h4.5c5.5,0,10,4.5,10,10l0,13.6l-5,0
		l0-13.6c0-2.7-2.2-5-5-5h-4.5c-2.8,0-5,2.2-5,5v213.6C635.1,270.3,630.3,275.1,624.4,275.1z"/>
	<rect x="982.7" y="229.4" class="st0" width="12.6" height="4.7"/>
	<rect x="982.7" y="252.8" class="st0" width="12.6" height="4.7"/>
	<rect x="997" y="218" class="st4" width="93.9" height="54.1"/>
	<g>
		<rect x="1010" y="214.8" class="st0" width="6.3" height="57.3"/>
		<rect x="1020.2" y="214.8" class="st0" width="6.3" height="57.3"/>
		<rect x="1030.5" y="214.8" class="st0" width="6.3" height="57.3"/>
		<rect x="1040.7" y="214.8" class="st0" width="6.3" height="57.3"/>
		<rect x="1051" y="214.8" class="st0" width="6.3" height="57.3"/>
		<rect x="1061.2" y="214.8" class="st0" width="6.3" height="57.3"/>
		<rect x="1071.5" y="214.8" class="st0" width="6.3" height="57.3"/>
	</g>
	<polygon class="st4" points="1082.7,214.8 1082.7,267.3 1005.1,267.3 1005.1,214.8 991.7,214.8 991.7,267.3 991.7,272.1 
		991.7,291.8 1096.1,291.8 1096.1,272.1 1096.1,267.3 1096.1,214.8 	"/>
	<rect x="991.8" y="291.8" class="st0" width="9.7" height="33.6"/>
	<rect x="986.6" y="322" class="st0" width="20" height="3.4"/>
	<rect x="1086.5" y="291.8" class="st0" width="9.7" height="33.6"/>
	<rect x="1081.4" y="322" class="st0" width="20" height="3.4"/>
	<path class="st0" d="M958.7,164.5h-25.1v6h25.1c3.2,0,5.9,2.6,5.9,5.9v26.2h6v-26.2C970.5,169.8,965.2,164.5,958.7,164.5z"/>
	<path class="st4" d="M973,208.3v-8.2h-10.9v8.2l-9.7,15.2v34.9c0,6.8,6.8,12.3,15.2,12.3c8.4,0,15.2-5.5,15.2-12.3v-34.9L973,208.3
		z"/>
	<path class="st0" d="M1098.5,188.7h18.4v6h-18.4c-3.2,0-5.9,2.6-5.9,5.9v8.5h-6v-8.5C1086.6,194,1091.9,188.7,1098.5,188.7z"/>
	<rect x="1084.1" y="206.6" class="st0" width="10.9" height="8.2"/>
	<polygon class="st4" points="889.1,285.5 865,285.5 803.5,179.9 950.5,179.9 	"/>
	<g>
		<rect x="809.3" y="174.9" class="st0" width="10.1" height="150.5"/>
		<rect x="934.7" y="174.9" class="st0" width="10.1" height="150.5"/>
	</g>
	<rect x="804" y="321.9" class="st0" width="20.8" height="3.5"/>
	<rect x="929.3" y="321.9" class="st0" width="20.7" height="3.5"/>
	<path class="st4" d="M950.5,67.3c0-10-28.6-18.2-65.5-19.2c-2.6-0.1-5.3-0.1-8-0.1c-2.7,0-5.4,0-8,0.1c-36.8,1-65.5,9.3-65.5,19.3
		c0,0,0,0.1,0,0.1v4.1c0,0.4-0.1,0.8-0.1,1.2v107.3h147V72.6c0-0.4,0-0.8-0.1-1.2h0.1L950.5,67.3L950.5,67.3z"/>
	<g>
		<g>
			<path class="st0" d="M919.6,200.2c0,1.5-1.2,2.7-2.7,2.7l0,0c-1.5,0-2.7-1.2-2.7-2.7V48.3c0-1.5,1.2-2.7,2.7-2.7l0,0
				c1.5,0,2.7,1.2,2.7,2.7V200.2z"/>
			<rect x="909.1" y="103.7" class="st0" width="6.3" height="3.3"/>
			<rect x="909.1" y="187.9" class="st0" width="6.3" height="3.3"/>
		</g>
		<g>
			<path class="st0" d="M834.4,200.2c0,1.5,1.2,2.7,2.7,2.7l0,0c1.5,0,2.7-1.2,2.7-2.7V48.3c0-1.5-1.2-2.7-2.7-2.7l0,0
				c-1.5,0-2.7,1.2-2.7,2.7V200.2z"/>
			<rect x="838.7" y="103.7" class="st0" width="6.3" height="3.3"/>
			<rect x="838.7" y="187.9" class="st0" width="6.3" height="3.3"/>
			<path class="st0" d="M832.5,50.7h9.3V37.4c0-5,4.1-9.2,9.2-9.2h31.4c3.7-1,3.6-8.7,0-9.3h-31.4c-10.2,0-18.5,8.3-18.5,18.5V50.7z
				"/>
		</g>
	</g>
	<rect x="819.4" y="290.4" class="st0" width="115.3" height="7"/>
	<path class="st1" d="M885,19.2V48c-2.6-0.1-5.3-0.1-8-0.1c-2.7,0-5.4,0-8,0.1V19.2c0-4.4,3.6-5.1,7.9-5.1h0.2
		C881.5,14,885,14.8,885,19.2z"/>
	<path class="st4" d="M900.8,131.1c0,13.1-10.7,23.8-23.8,23.8c-13.1,0-23.8-10.7-23.8-23.8c0-13.1,10.7-23.8,23.8-23.8
		C890.2,107.3,900.8,117.9,900.8,131.1z"/>
	<path class="st0" d="M893.1,131.1c0,8.9-7.2,16.1-16.1,16.1c-8.9,0-16.1-7.2-16.1-16.1c0-8.9,7.2-16.1,16.1-16.1
		C885.9,115,893.1,122.2,893.1,131.1z"/>
	<path class="st2" d="M881.3,131.1c0,2.3-1.9,4.2-4.2,4.2c-2.3,0-4.2-1.9-4.2-4.2c0-2.3,1.9-4.2,4.2-4.2
		C879.4,126.8,881.3,128.7,881.3,131.1z"/>
	<rect x="856.7" y="129.5" class="st2" width="40.8" height="3.1"/>
	<rect x="1258.2" y="254.6" class="st0" width="5.3" height="14"/>
	<rect x="1258.2" y="278.2" class="st0" width="5.3" height="14"/>
	<path class="st5" d="M612.1,286.9c0-11.7-29.5-21.1-65.8-21.1c-36.3,0-65.8,9.5-65.8,21.1S510,308,546.3,308
		C582.6,308,612.1,298.5,612.1,286.9z"/>
	<g>
		<rect x="478.5" y="290.6" class="st0" width="10.1" height="34.8"/>
		<rect x="604" y="290.6" class="st0" width="10.1" height="34.8"/>
	</g>
	<rect x="473.2" y="321.9" class="st0" width="20.8" height="3.5"/>
	<rect x="598.6" y="321.9" class="st0" width="20.8" height="3.5"/>
	<path class="st1" d="M619.8,112.8c0-10.7-32.9-19.4-73.5-19.4c-40.6,0-73.5,8.7-73.5,19.4v4.2c0,0.4-0.1,0.8-0.1,1.2v177.4h147.1
		V118.2c0-0.4,0-0.8-0.1-1.2h0.1V112.8z"/>
	<path class="st0" d="M604,238c0,1.5-1.2,2.7-2.7,2.7l0,0c-1.5,0-2.7-1.2-2.7-2.7v-152c0-1.5,1.2-2.7,2.7-2.7l0,0
		c1.5,0,2.7,1.2,2.7,2.7V238z"/>
	<rect x="593.4" y="141.5" class="st0" width="6.3" height="3.3"/>
	<rect x="593.4" y="225.8" class="st0" width="6.3" height="3.3"/>
	<rect x="522.5" y="225.2" class="st0" width="47.7" height="10"/>
	<rect x="529.9" y="211.8" class="st0" width="5.6" height="13.6"/>
	<path class="st1" d="M544.6,201.5c0,6.6-5.3,11.9-11.9,11.9c-6.6,0-11.9-5.3-11.9-11.9c0-6.6,5.3-11.9,11.9-11.9
		C539.3,189.6,544.6,194.9,544.6,201.5z"/>
	<rect x="557" y="211.8" class="st0" width="5.6" height="13.6"/>
	<path class="st1" d="M571.7,201.5c0,6.6-5.3,11.9-11.9,11.9c-6.6,0-11.9-5.3-11.9-11.9c0-6.6,5.3-11.9,11.9-11.9
		C566.4,189.6,571.7,194.9,571.7,201.5z"/>
	<path class="st0" d="M532.7,193.9c-4.2,0-7.6,3.4-7.6,7.6c0,4.2,3.4,7.6,7.6,7.6c4.2,0,7.6-3.4,7.6-7.6
		C540.3,197.3,536.9,193.9,532.7,193.9z"/>
	<path class="st0" d="M559.9,193.9c-4.2,0-7.6,3.4-7.6,7.6c0,4.2,3.4,7.6,7.6,7.6c4.2,0,7.6-3.4,7.6-7.6
		C567.5,197.3,564.1,193.9,559.9,193.9z"/>
	<path class="st2" d="M534.9,201.5c0,1.2-1,2.2-2.2,2.2c-1.2,0-2.2-1-2.2-2.2s1-2.2,2.2-2.2C533.9,199.3,534.9,200.3,534.9,201.5z"
		/>
	<polygon class="st2" points="538.1,194.8 532.1,201 533.3,202 	"/>
	<path class="st2" d="M561.5,203c-0.8,0.9-2.2,0.9-3.1,0.1c-0.9-0.8-0.9-2.2-0.1-3.1c0.8-0.9,2.2-0.9,3.1-0.1
		C562.2,200.7,562.3,202.1,561.5,203z"/>
	<polygon class="st2" points="568.3,200.2 559.7,200.7 560,202.2 	"/>
	<g>
		<rect x="309.2" y="291" class="st0" width="9.9" height="34.4"/>
		<rect x="433" y="291" class="st0" width="9.9" height="34.4"/>
	</g>
	<rect x="303.9" y="321.9" class="st0" width="20.5" height="3.5"/>
	<rect x="427.7" y="321.9" class="st0" width="20.5" height="3.5"/>
	<rect x="950.5" y="163.1" class="st0" width="3.2" height="8.8"/>
	<rect x="1115.3" y="187.2" class="st0" width="3.2" height="8.8"/>
	<rect x="448.6" y="252.2" class="st0" width="4.5" height="27.2"/>
	<path class="st0" d="M521.3,262.7h-70.8v-5h70.8c4.9,0,8.9-4,8.9-8.9v-13.6h5v13.6C535.3,256.5,529,262.7,521.3,262.7z"/>
	<rect x="528.6" y="235.2" class="st0" width="8.4" height="3.7"/>
	<path class="st0" d="M544.6,274.4h-93.3v-5h93.3c7.2,0,13.1-5.9,13.1-13.1v-21.1h5v21.1C562.7,266.3,554.6,274.4,544.6,274.4z"/>
	<rect x="556" y="235.2" class="st0" width="8.4" height="3.7"/>
	<rect x="453.1" y="256" class="st0" width="3.7" height="8.4"/>
	<rect x="453.1" y="267.7" class="st0" width="3.7" height="8.4"/>
	<rect x="619.8" y="265.7" class="st0" width="3.3" height="13.6"/>
	<g>
		<g>
			<path class="st0" d="M1206.7,21.1c2.2-1.4,5.3-4,7.7-6.5c3.8-4,4.5-6.2,3.5-7.1c-0.9-0.9-3.1-0.2-6.9,3.8c-2.4,2.5-4.9,5.7-6.2,8
				L1206.7,21.1z"/>
			<path class="st0" d="M1206.4,23.1c-0.8,0.9-2.3,0.8-3.3-0.1c-1-0.9-1.1-2.4-0.2-3.2c0.8-0.9,2.3-0.8,3.3,0.1
				C1207.1,20.8,1207.2,22.3,1206.4,23.1z"/>
		</g>
		<path class="st0" d="M1214.9,33h-3.1v-2.2c0-1.9-1.5-3.4-3.4-3.4h-13.7v-3.1h13.7c3.6,0,6.5,2.9,6.5,6.5V33z"/>
		<path class="st0" d="M1204.1,22.7c-1.3,0-2.4,0.5-3.2,1.4v3.7c0.7,0.8,1.8,1.4,3.2,1.4c1.1,0,2-0.4,2.8-0.9c0.3-0.3,0.5-0.6,0.5-1
			v-2.5c0-0.4-0.2-0.8-0.5-1C1206.1,23,1205.2,22.7,1204.1,22.7z"/>
		<rect x="1196.2" y="24" class="st0" width="4.8" height="3.7"/>
	</g>
	<rect x="648" y="51.8" class="st0" width="8.6" height="9.5"/>
	<polygon class="st4" points="729.1,285.4 705,285.4 643.6,179.8 790.6,179.8 	"/>
	<g>
		<rect x="649.4" y="174.8" class="st0" width="10.1" height="150.5"/>
		<rect x="774.7" y="174.8" class="st0" width="10.1" height="150.5"/>
	</g>
	<rect x="644" y="321.8" class="st0" width="20.8" height="3.5"/>
	<rect x="769.4" y="321.8" class="st0" width="20.7" height="3.5"/>
	<path class="st1" d="M790.6,67.2c0-10-28.6-18.2-65.5-19.2c-2.6-0.1-5.3-0.1-8-0.1c-2.7,0-5.4,0-8,0.1c-36.8,1-65.5,9.3-65.5,19.3
		c0,0,0,0.1,0,0.1v4.1c0,0.4-0.1,0.8-0.1,1.2v107.3h147V72.5c0-0.4,0-0.8-0.1-1.2h0.1L790.6,67.2L790.6,67.2z"/>
	<g>
		<g>
			<path class="st0" d="M759.7,200.1c0,1.5-1.2,2.7-2.7,2.7l0,0c-1.5,0-2.7-1.2-2.7-2.7V48.2c0-1.5,1.2-2.7,2.7-2.7l0,0
				c1.5,0,2.7,1.2,2.7,2.7V200.1z"/>
			<rect x="749.1" y="103.6" class="st0" width="6.3" height="3.3"/>
			<rect x="749.1" y="187.8" class="st0" width="6.3" height="3.3"/>
		</g>
		<g>
			<path class="st0" d="M674.5,200.1c0,1.5,1.2,2.7,2.7,2.7l0,0c1.5,0,2.7-1.2,2.7-2.7V48.2c0-1.5-1.2-2.7-2.7-2.7l0,0
				c-1.5,0-2.7,1.2-2.7,2.7V200.1z"/>
			<rect x="678.8" y="103.6" class="st0" width="6.3" height="3.3"/>
			<rect x="678.8" y="187.8" class="st0" width="6.3" height="3.3"/>
			<path class="st0" d="M672.5,50.6h9.3V37.3c0-5,4.1-9.2,9.2-9.2h31.4c3.7-1,3.6-8.7,0-9.3H691c-10.2,0-18.5,8.3-18.5,18.5V50.6z"
				/>
		</g>
	</g>
	<rect x="659.4" y="290.3" class="st0" width="115.3" height="7"/>
	<path class="st1" d="M725.1,19.1V48c-2.6-0.1-5.3-0.1-8-0.1c-2.7,0-5.4,0-8,0.1V19.1c0-4.4,3.6-5.1,7.9-5.1h0.2
		C721.6,13.9,725.1,14.7,725.1,19.1z"/>
	<path class="st4" d="M740.9,131c0,13.1-10.7,23.8-23.8,23.8c-13.1,0-23.8-10.7-23.8-23.8c0-13.1,10.7-23.8,23.8-23.8
		C730.3,107.2,740.9,117.8,740.9,131z"/>
	<path class="st0" d="M733.2,131c0,8.9-7.2,16.1-16.1,16.1c-8.9,0-16.1-7.2-16.1-16.1c0-8.9,7.2-16.1,16.1-16.1
		C726,114.9,733.2,122.1,733.2,131z"/>
	<path class="st2" d="M721.4,131c0,2.3-1.9,4.2-4.2,4.2c-2.3,0-4.2-1.9-4.2-4.2c0-2.3,1.9-4.2,4.2-4.2
		C719.5,126.7,721.4,128.6,721.4,131z"/>
	<rect x="696.7" y="129.4" class="st2" width="40.8" height="3.1"/>
	<rect x="54.1" y="291" class="st0" width="9.9" height="34.4"/>
	<rect x="216.8" y="291" class="st0" width="9.9" height="34.4"/>
	<rect x="48.8" y="321.9" class="st0" width="20.5" height="3.5"/>
	<rect x="211.5" y="321.9" class="st0" width="20.5" height="3.5"/>
	<path class="st6" d="M306.4,24.1l3.2-5.6h3.8l4.4-3.4l4.1,1.7l4.9-1.7l3.3,1.2l2.2-2.6l3.8,0.8l1.6,2l2.9-0.1l4-1.2l2,1.7l3.6-0.4
		l1.6,2.2l1.1,4.6v4.4l-17,1.9c0,0-9.3-1.7-11.1-1.5c-1.8,0.2-8-0.2-8.7,0c-0.7,0.2-6.5-1.5-6.5-1.5L306.4,24.1z"/>
	<path class="st1" d="M314.5,40.8v33.9H348V40.8h0L363,22.6h-63.4L314.5,40.8L314.5,40.8z"/>
	<polygon class="st1" points="314.5,74.7 299.6,81.6 299.6,112.5 314.5,119.3 323.4,130.8 323.4,141.5 313.1,141.5 322.7,153.9 
		322.7,189.5 339.9,189.1 339.9,153.9 349.4,141.5 339.2,141.5 339.2,130.8 348.1,119.3 363,112.5 363,81.6 348.1,74.7 	"/>
	<g>
		<polygon class="st5" points="344.2,51.9 334.7,54.3 318.4,49.7 334.5,47.2 		"/>
		<polygon class="st5" points="344.2,42.6 334.7,47.3 318.4,42.6 		"/>
		<polygon class="st5" points="344.2,59 334.7,61.4 318.4,56.8 334.5,54.3 		"/>
		<polygon class="st5" points="344.2,66.1 334.7,68.5 318.4,63.9 334.5,61.4 		"/>
		<polygon class="st5" points="344.2,73.1 318.4,73.1 328.1,68.5 		"/>
		<polygon class="st7" points="344.2,51.9 318.4,44.5 318.4,42.6 344.2,50 		"/>
		<polygon class="st7" points="344.2,59 318.4,51.6 318.4,49.7 344.2,57 		"/>
		<polygon class="st7" points="344.2,66 318.4,58.7 318.4,56.8 344.2,64.1 		"/>
		<polygon class="st7" points="344.2,73.1 318.4,65.7 318.4,63.8 344.2,71.2 		"/>
	</g>
	<path class="st1" d="M448.6,296H303.5v-81.3c0-6.4,5.2-11.5,11.5-11.5h122.1c6.4,0,11.5,5.2,11.5,11.5V296z"/>
	<path class="st1" d="M431.6,184.9H320.5c-4.9,0-8.8,3.9-8.8,8.8v1.5c0,1.8,1.4,3.2,3.2,3.2h0v4.7h122.4v-4.7h0
		c1.8,0,3.2-1.4,3.2-3.2v-1.5C440.4,188.8,436.5,184.9,431.6,184.9z"/>
	<path class="st0" d="M451.1,222.3c0,1.5-1.2,2.7-2.7,2.7H303.8c-1.5,0-2.7-1.2-2.7-2.7l0,0c0-1.5,1.2-2.7,2.7-2.7h144.6
		C449.9,219.6,451.1,220.8,451.1,222.3L451.1,222.3z"/>
	<path class="st0" d="M451.1,283.8c0,1.5-1.2,2.7-2.7,2.7H303.8c-1.5,0-2.7-1.2-2.7-2.7l0,0c0-1.5,1.2-2.7,2.7-2.7h144.6
		C449.9,281.1,451.1,282.3,451.1,283.8L451.1,283.8z"/>
	<path class="st1" d="M433.5,176.9c0-1.2-0.7-2.2-1.8-2.6c0-0.7-1-1.5-2.4-1.8c-12.1-1.8-24.3-1.3-35.9,1.5c-1.3,0.3-2.2,1.1-2,1.8
		c0,0,0,0,0,0c0.1,0.5,0.6,0.8,1.4,0.9c-1.4,0.2-2.4,1.4-2.4,2.9v0.5c0,0.6,0.5,1.1,1.1,1.1h0v3.8h40.6v-3.8h0
		c0.6,0,1.1-0.5,1.1-1.1v-0.5c0-0.3-0.1-0.6-0.2-0.9C433.2,178.2,433.5,177.5,433.5,176.9z M427.9,176.5c0,0,0,0.1,0,0.1H394
		c0,0,0,0,0,0C405.2,174.4,416.7,174.4,427.9,176.5z"/>
	<path class="st0" d="M429.1,176.9c0,0.9,0.7,1.6,1.6,1.6c0.9,0,1.6-0.7,1.6-1.6s-0.7-1.6-1.6-1.6
		C429.8,175.2,429.1,176,429.1,176.9z"/>
	<g class="st8">
		<polygon class="st9" points="1317,263 1317,225 1307.4,225 1307.4,263 1302.3,263 1302.3,266.4 1307.4,266.4 1317,266.4 
			1322.1,266.4 1322.1,263 		"/>
		<rect x="1316.9" y="225" class="st9" width="263.9" height="9.3"/>
		<g>
			<path class="st10" d="M1443.7,202.5v21.3h-138c-1.3,0-2.5-0.2-3.6-0.6c-4.1-1.5-7.1-5.4-7.1-10c0-3,1.2-5.6,3.1-7.5
				c1.1-1.1,2.4-2,3.9-2.5c1.1-0.4,2.3-0.6,3.6-0.6H1443.7z"/>
			<path class="st9" d="M1443.7,201.2v2.5h-138c-1.3,0-2.5,0.3-3.6,0.7c-3.4,1.4-5.8,4.8-5.8,8.7c0,3.9,2.4,7.2,5.8,8.7
				c1.1,0.5,2.3,0.7,3.6,0.7h138v2.5h-138c-1.3,0-2.5-0.2-3.6-0.6c-4.8-1.5-8.3-6.1-8.3-11.4c0-5.3,3.5-9.8,8.3-11.4
				c1.1-0.4,2.3-0.6,3.6-0.6H1443.7z"/>
			<path class="st9" d="M1443.7,208.6v9.2h-136.5c-2.2,0-4.1-1.7-4.4-3.9c-0.1-0.2-0.1-0.5-0.1-0.7c0-0.5,0.1-0.9,0.3-1.3
				c0.1-0.2,0.2-0.4,0.3-0.5c0,0,0-0.1,0.1-0.1c0.8-1.7,2.2-2.6,3.9-2.6H1443.7z"/>
			<path class="st4" d="M1306.1,205.5c-4.2,0-7.7,3.4-7.7,7.7c0,4.2,3.4,7.7,7.7,7.7c4.2,0,7.7-3.4,7.7-7.7
				C1313.8,208.9,1310.4,205.5,1306.1,205.5z"/>
			<path class="st0" d="M1306.1,216.5c-1.9,0-3.4-1.5-3.4-3.4c0-1.9,1.5-3.4,3.4-3.4c1.9,0,3.4,1.5,3.4,3.4
				C1309.5,215,1308,216.5,1306.1,216.5z"/>
			<path class="st4" d="M1336.7,205.5c-4.2,0-7.7,3.4-7.7,7.7c0,4.2,3.4,7.7,7.7,7.7c4.2,0,7.7-3.4,7.7-7.7
				C1344.4,208.9,1340.9,205.5,1336.7,205.5z"/>
			<path class="st0" d="M1336.7,216.5c-1.9,0-3.4-1.5-3.4-3.4c0-1.9,1.5-3.4,3.4-3.4c1.9,0,3.4,1.5,3.4,3.4
				C1340.1,215,1338.6,216.5,1336.7,216.5z"/>
			<path class="st4" d="M1367.3,205.5c-4.2,0-7.7,3.4-7.7,7.7c0,4.2,3.4,7.7,7.7,7.7c4.2,0,7.7-3.4,7.7-7.7
				C1374.9,208.9,1371.5,205.5,1367.3,205.5z"/>
			<path class="st0" d="M1367.3,216.5c-1.9,0-3.4-1.5-3.4-3.4c0-1.9,1.5-3.4,3.4-3.4c1.9,0,3.4,1.5,3.4,3.4
				C1370.6,215,1369.1,216.5,1367.3,216.5z"/>
			<path class="st4" d="M1397.8,205.5c-4.2,0-7.7,3.4-7.7,7.7c0,4.2,3.4,7.7,7.7,7.7c4.2,0,7.7-3.4,7.7-7.7
				C1405.5,208.9,1402.1,205.5,1397.8,205.5z"/>
			<path class="st0" d="M1397.8,216.5c-1.9,0-3.4-1.5-3.4-3.4c0-1.9,1.5-3.4,3.4-3.4c1.9,0,3.4,1.5,3.4,3.4
				C1401.2,215,1399.7,216.5,1397.8,216.5z"/>
			<path class="st4" d="M1428.4,205.5c-4.2,0-7.7,3.4-7.7,7.7c0,4.2,3.4,7.7,7.7,7.7c4.2,0,7.7-3.4,7.7-7.7
				C1436.1,208.9,1432.6,205.5,1428.4,205.5z"/>
			<path class="st0" d="M1428.4,216.5c-1.9,0-3.4-1.5-3.4-3.4c0-1.9,1.5-3.4,3.4-3.4c1.9,0,3.4,1.5,3.4,3.4
				C1431.8,215,1430.3,216.5,1428.4,216.5z"/>
		</g>
		<g>
			<path class="st10" d="M1443.7,223.8v-21.3h138c1.3,0,2.5,0.2,3.6,0.6c4.1,1.5,7.1,5.4,7.1,10c0,3-1.2,5.6-3.1,7.5
				c-1.1,1.1-2.4,2-3.9,2.5c-1.1,0.4-2.3,0.6-3.6,0.6H1443.7z"/>
			<path class="st9" d="M1443.7,225.1v-2.5h138c1.3,0,2.5-0.3,3.6-0.7c3.4-1.4,5.8-4.8,5.8-8.7c0-3.9-2.4-7.2-5.8-8.7
				c-1.1-0.5-2.3-0.7-3.6-0.7h-138v-2.5h138c1.3,0,2.5,0.2,3.6,0.6c4.8,1.5,8.3,6.1,8.3,11.4c0,5.3-3.5,9.8-8.3,11.4
				c-1.1,0.4-2.3,0.6-3.6,0.6H1443.7z"/>
			<path class="st9" d="M1443.7,217.7v-9.2h136.5c2.2,0,4.1,1.7,4.4,3.9c0.1,0.2,0.1,0.5,0.1,0.7c0,0.5-0.1,0.9-0.3,1.3
				c-0.1,0.2-0.2,0.4-0.3,0.5c0,0,0,0.1-0.1,0.1c-0.8,1.7-2.2,2.6-3.9,2.6H1443.7z"/>
			<path class="st4" d="M1581.3,220.8c4.2,0,7.7-3.4,7.7-7.7c0-4.2-3.4-7.7-7.7-7.7c-4.2,0-7.7,3.4-7.7,7.7
				C1573.6,217.4,1577,220.8,1581.3,220.8z"/>
			<path class="st0" d="M1581.3,209.8c1.9,0,3.4,1.5,3.4,3.4c0,1.9-1.5,3.4-3.4,3.4c-1.9,0-3.4-1.5-3.4-3.4
				C1577.9,211.3,1579.4,209.8,1581.3,209.8z"/>
			<path class="st4" d="M1550.7,220.8c4.2,0,7.7-3.4,7.7-7.7c0-4.2-3.4-7.7-7.7-7.7c-4.2,0-7.7,3.4-7.7,7.7
				C1543,217.4,1546.5,220.8,1550.7,220.8z"/>
			<path class="st0" d="M1550.7,209.8c1.9,0,3.4,1.5,3.4,3.4c0,1.9-1.5,3.4-3.4,3.4c-1.9,0-3.4-1.5-3.4-3.4
				C1547.3,211.3,1548.8,209.8,1550.7,209.8z"/>
			<path class="st4" d="M1520.1,220.8c4.2,0,7.7-3.4,7.7-7.7c0-4.2-3.4-7.7-7.7-7.7c-4.2,0-7.7,3.4-7.7,7.7
				C1512.5,217.4,1515.9,220.8,1520.1,220.8z"/>
			<path class="st0" d="M1520.1,209.8c1.9,0,3.4,1.5,3.4,3.4c0,1.9-1.5,3.4-3.4,3.4c-1.9,0-3.4-1.5-3.4-3.4
				C1516.8,211.3,1518.3,209.8,1520.1,209.8z"/>
			<path class="st4" d="M1489.6,220.8c4.2,0,7.7-3.4,7.7-7.7c0-4.2-3.4-7.7-7.7-7.7c-4.2,0-7.7,3.4-7.7,7.7
				C1481.9,217.4,1485.3,220.8,1489.6,220.8z"/>
			<path class="st0" d="M1489.6,209.8c1.9,0,3.4,1.5,3.4,3.4c0,1.9-1.5,3.4-3.4,3.4c-1.9,0-3.4-1.5-3.4-3.4
				C1486.2,211.3,1487.7,209.8,1489.6,209.8z"/>
			<path class="st4" d="M1459,220.8c4.2,0,7.7-3.4,7.7-7.7c0-4.2-3.4-7.7-7.7-7.7s-7.7,3.4-7.7,7.7
				C1451.3,217.4,1454.8,220.8,1459,220.8z"/>
			<path class="st0" d="M1459,209.8c1.9,0,3.4,1.5,3.4,3.4c0,1.9-1.5,3.4-3.4,3.4c-1.9,0-3.4-1.5-3.4-3.4
				C1455.6,211.3,1457.1,209.8,1459,209.8z"/>
		</g>
		<polygon class="st9" points="1375.1,263 1375.1,233.2 1365.5,233.2 1365.5,263 1360.4,263 1360.4,266.4 1365.5,266.4 
			1375.1,266.4 1380.2,266.4 1380.2,263 		"/>
		<polygon class="st9" points="1433.3,263 1433.3,233.2 1423.7,233.2 1423.7,263 1418.6,263 1418.6,266.4 1423.7,266.4 
			1433.3,266.4 1438.4,266.4 1438.4,263 		"/>
		<polygon class="st9" points="1491.4,263 1491.4,233.2 1481.8,233.2 1481.8,263 1476.7,263 1476.7,266.4 1481.8,266.4 
			1491.4,266.4 1496.5,266.4 1496.5,263 		"/>
		<polygon class="st9" points="1549.8,263 1549.8,233.2 1540.2,233.2 1540.2,263 1535.1,263 1535.1,266.4 1540.2,266.4 
			1549.8,266.4 1554.9,266.4 1554.9,263 		"/>
	</g>
	<rect x="1178.5" y="52.6" class="st4" width="20.1" height="52"/>
	<path class="st4" d="M1189.7,0h-2.3c-3.4,0-6.2,2.8-6.2,6.2v46.4h14.8V6.2C1195.9,2.8,1193.1,0,1189.7,0z"/>
	<g>
		<path class="st4" d="M1314,169.1h-3.1c-0.5,0-1-0.4-1-1v-38.9c0-0.6,0.5-1,1-1h3.1c0.6,0,1,0.4,1,1v38.9
			C1315,168.7,1314.6,169.1,1314,169.1z"/>
		<path class="st4" d="M1318.2,137.1h-11.5c-2,0-3.6-1.6-3.6-3.6V97.5h18.7v35.9C1321.8,135.5,1320.2,137.1,1318.2,137.1z"/>
		<path class="st4" d="M1321.5,108.3h-18.1c-2,0-3.6-1.6-3.6-3.6V59c0-3.5,2.8-6.3,6.3-6.3h12.5c3.5,0,6.3,2.8,6.3,6.3v45.8
			C1325,106.7,1323.5,108.3,1321.5,108.3z"/>
	</g>
	<rect x="1294.7" y="76.3" class="st0" width="5.3" height="9.3"/>
	<rect x="1294.7" y="88.2" class="st0" width="5.3" height="9.3"/>
	<g>
		<path class="st2" d="M1308.8,270.7c-0.9,0-1.6-0.7-1.6-1.6v-17.8c0-1.8,0.7-3.6,1.9-5c0.7-0.7,1.1-1.7,1.1-2.6l0.1-1l0.3-4.8
			l0.3-5l0-0.3l-0.4-0.3l0,0l0.4-2.6h4.8l0.4,2.6l0,0l-0.4,0.3l0,0.3l0.3,5l0.3,4.8l0.1,1c0.1,1,0.5,1.9,1.1,2.6
			c1.2,1.3,1.9,3.1,1.9,5v17.8c0,0.9-0.7,1.6-1.6,1.6H1308.8z"/>
		<path class="st2" d="M1311.1,229.6c-0.3,0-0.5-0.2-0.5-0.5v0c0-0.3,0.2-0.5,0.5-0.5h4.2c0.3,0,0.5,0.2,0.5,0.5v0
			c0,0.3-0.2,0.5-0.5,0.5H1311.1z"/>
		<path class="st11" d="M1310.8,232.8l0-0.3l-0.4-0.3c0,0,0.1,0,0.1,0h5.3c0,0,0.1,0,0.1,0l-0.4,0.3l0,0.3H1310.8z"/>
		<path class="st12" d="M1311.5,232.9l-0.5,9.8l-0.1,1c-0.1,1.2-0.6,2.3-1.4,3.2c-1.1,1.2-1.7,2.7-1.7,4.3v17.8
			c0,0.4,0.3,0.7,0.7,0.7h1.8v-18.5c0-1.6,0.3-2.7,1.3-3.9c1.3-1.6,0.9-4.6,0.9-4.6l0-9.8H1311.5z"/>
		<path class="st2" d="M1326.8,270.7c-0.9,0-1.6-0.7-1.6-1.6v-17.8c0-1.8,0.7-3.6,1.9-5c0.7-0.7,1.1-1.7,1.1-2.6l0.1-1l0.3-4.8
			l0.3-5l0-0.3l-0.4-0.3l0,0l0.4-2.6h4.8l0.4,2.6l0,0l-0.4,0.3l0,0.3l0.3,5l0.3,4.8l0.1,1c0.1,1,0.5,1.9,1.1,2.6
			c1.2,1.3,1.9,3.1,1.9,5v17.8c0,0.9-0.7,1.6-1.6,1.6H1326.8z"/>
		<path class="st2" d="M1329.1,229.6c-0.3,0-0.5-0.2-0.5-0.5v0c0-0.3,0.2-0.5,0.5-0.5h4.2c0.3,0,0.5,0.2,0.5,0.5v0
			c0,0.3-0.2,0.5-0.5,0.5H1329.1z"/>
		<path class="st11" d="M1328.9,232.8l0-0.3l-0.4-0.3c0,0,0.1,0,0.1,0h5.3c0,0,0.1,0,0.1,0l-0.4,0.3l0,0.3H1328.9z"/>
		<path class="st12" d="M1329.6,232.9l-0.5,9.8l-0.1,1c-0.1,1.2-0.6,2.3-1.4,3.2c-1.1,1.2-1.7,2.7-1.7,4.3v17.8
			c0,0.4,0.3,0.7,0.7,0.7h1.8v-18.5c0-1.6,0.3-2.7,1.3-3.9c1.3-1.6,0.9-4.6,0.9-4.6l0-9.8H1329.6z"/>
		<path class="st2" d="M1344.8,270.7c-0.9,0-1.6-0.7-1.6-1.6v-17.8c0-1.8,0.7-3.6,1.9-5c0.7-0.7,1.1-1.7,1.1-2.6l0.1-1l0.3-4.8
			l0.3-5l0-0.3l-0.4-0.3l0,0l0.4-2.6h4.8l0.4,2.6l0,0l-0.4,0.3l0,0.3l0.3,5l0.3,4.8l0.1,1c0.1,1,0.5,1.9,1.1,2.6
			c1.2,1.3,1.9,3.1,1.9,5v17.8c0,0.9-0.7,1.6-1.6,1.6H1344.8z"/>
		<path class="st11" d="M1346.9,232.8l0-0.3l-0.4-0.3c0,0,0.1,0,0.1,0h5.3c0,0,0.1,0,0.1,0l-0.4,0.3l0,0.3H1346.9z"/>
		<path class="st12" d="M1347.6,232.9l-0.5,9.8l-0.1,1c-0.1,1.2-0.6,2.3-1.4,3.2c-1.1,1.2-1.7,2.7-1.7,4.3v17.8
			c0,0.4,0.3,0.7,0.7,0.7h1.8v-18.5c0-1.6,0.3-2.7,1.3-3.9c1.3-1.6,0.9-4.6,0.9-4.6l0-9.8H1347.6z"/>
		<path class="st2" d="M1362.9,270.7c-0.9,0-1.6-0.7-1.6-1.6v-17.8c0-1.8,0.7-3.6,1.9-5c0.7-0.7,1.1-1.7,1.1-2.6l0.1-1l0.3-4.8
			l0.3-5l0-0.3l-0.4-0.3l0,0l0.4-2.6h4.8l0.4,2.6l0,0l-0.4,0.3l0,0.3l0.3,5l0.3,4.8l0.1,1c0.1,1,0.5,1.9,1.1,2.6
			c1.2,1.3,1.9,3.1,1.9,5v17.8c0,0.9-0.7,1.6-1.6,1.6H1362.9z"/>
		<path class="st2" d="M1365.2,229.6c-0.3,0-0.5-0.2-0.5-0.5v0c0-0.3,0.2-0.5,0.5-0.5h4.2c0.3,0,0.5,0.2,0.5,0.5v0
			c0,0.3-0.2,0.5-0.5,0.5H1365.2z"/>
		<path class="st11" d="M1365,232.8l0-0.3l-0.4-0.3c0,0,0.1,0,0.1,0h5.3c0,0,0.1,0,0.1,0l-0.4,0.3l0,0.3H1365z"/>
		<path class="st12" d="M1365.7,232.9l-0.5,9.8l-0.1,1c-0.1,1.2-0.6,2.3-1.4,3.2c-1.1,1.2-1.7,2.7-1.7,4.3v17.8
			c0,0.4,0.3,0.7,0.7,0.7h1.8v-18.5c0-1.6,0.3-2.7,1.3-3.9c1.3-1.6,0.9-4.6,0.9-4.6l0-9.8H1365.7z"/>
		<path class="st2" d="M1380.9,270.7c-0.9,0-1.6-0.7-1.6-1.6v-17.8c0-1.8,0.7-3.6,1.9-5c0.7-0.7,1.1-1.7,1.1-2.6l0.1-1l0.3-4.8
			l0.3-5l0-0.3l-0.4-0.3l0,0l0.4-2.6h4.8l0.4,2.6l0,0l-0.4,0.3l0,0.3l0.3,5l0.3,4.8l0.1,1c0.1,1,0.5,1.9,1.1,2.6
			c1.2,1.3,1.9,3.1,1.9,5v17.8c0,0.9-0.7,1.6-1.6,1.6H1380.9z"/>
		<path class="st2" d="M1383.3,229.6c-0.3,0-0.5-0.2-0.5-0.5v0c0-0.3,0.2-0.5,0.5-0.5h4.2c0.3,0,0.5,0.2,0.5,0.5v0
			c0,0.3-0.2,0.5-0.5,0.5H1383.3z"/>
		<path class="st11" d="M1383,232.8l0-0.3l-0.4-0.3c0,0,0.1,0,0.1,0h5.3c0,0,0.1,0,0.1,0l-0.4,0.3l0,0.3H1383z"/>
		<path class="st12" d="M1383.7,232.9l-0.5,9.8l-0.1,1c-0.1,1.2-0.6,2.3-1.4,3.2c-1.1,1.2-1.7,2.7-1.7,4.3v17.8
			c0,0.4,0.3,0.7,0.7,0.7h1.8v-18.5c0-1.6,0.3-2.7,1.3-3.9c1.3-1.6,0.9-4.6,0.9-4.6l0-9.8H1383.7z"/>
		<path class="st2" d="M1399,270.7c-0.9,0-1.6-0.7-1.6-1.6v-17.8c0-1.8,0.7-3.6,1.9-5c0.7-0.7,1.1-1.7,1.1-2.6l0.1-1l0.3-4.8l0.3-5
			l0-0.3l-0.4-0.3l0,0l0.4-2.6h4.7l0.4,2.6l0,0l-0.4,0.3l0,0.3l0.3,5l0.3,4.8l0.1,1c0.1,1,0.5,1.9,1.1,2.6c1.2,1.3,1.9,3.1,1.9,5
			v17.8c0,0.9-0.7,1.6-1.6,1.6H1399z"/>
		<path class="st2" d="M1401.3,229.6c-0.3,0-0.5-0.2-0.5-0.5v0c0-0.3,0.2-0.5,0.5-0.5h4.2c0.3,0,0.5,0.2,0.5,0.5v0
			c0,0.3-0.2,0.5-0.5,0.5H1401.3z"/>
		<path class="st11" d="M1401,232.8l0-0.3l-0.4-0.3c0,0,0.1,0,0.1,0h5.3c0,0,0.1,0,0.1,0l-0.4,0.3l0,0.3H1401z"/>
		<path class="st12" d="M1401.8,232.9l-0.5,9.8l-0.1,1c-0.1,1.2-0.6,2.3-1.4,3.2c-1.1,1.2-1.7,2.7-1.7,4.3v17.8
			c0,0.4,0.3,0.7,0.7,0.7h1.8v-18.5c0-1.6,0.3-2.7,1.3-3.9c1.3-1.6,0.9-4.6,0.9-4.6l0-9.8H1401.8z"/>
		<path class="st2" d="M1417,270.7c-0.9,0-1.6-0.7-1.6-1.6v-17.8c0-1.8,0.7-3.6,1.9-5c0.7-0.7,1.1-1.7,1.1-2.6l0.1-1l0.3-4.8l0.3-5
			l0-0.3l-0.4-0.3l0,0l0.4-2.6h4.8l0.4,2.6l0,0l-0.4,0.3l0,0.3l0.3,5l0.3,4.8l0.1,1c0.1,1,0.5,1.9,1.1,2.6c1.2,1.3,1.9,3.1,1.9,5
			v17.8c0,0.9-0.7,1.6-1.6,1.6H1417z"/>
		<path class="st2" d="M1419.4,229.6c-0.3,0-0.5-0.2-0.5-0.5v0c0-0.3,0.2-0.5,0.5-0.5h4.2c0.3,0,0.5,0.2,0.5,0.5v0
			c0,0.3-0.2,0.5-0.5,0.5H1419.4z"/>
		<path class="st11" d="M1419.1,232.8l0-0.3l-0.4-0.3c0,0,0.1,0,0.1,0h5.3c0,0,0.1,0,0.1,0l-0.4,0.3l0,0.3H1419.1z"/>
		<path class="st12" d="M1419.8,232.9l-0.5,9.8l-0.1,1c-0.1,1.2-0.6,2.3-1.4,3.2c-1.1,1.2-1.7,2.7-1.7,4.3v17.8
			c0,0.4,0.3,0.7,0.7,0.7h1.8v-18.5c0-1.6,0.3-2.7,1.3-3.9c1.3-1.6,0.9-4.6,0.9-4.6l0-9.8H1419.8z"/>
		<path class="st2" d="M1435.1,270.7c-0.9,0-1.6-0.7-1.6-1.6v-17.8c0-1.8,0.7-3.6,1.9-5c0.7-0.7,1.1-1.7,1.1-2.6l0.1-1l0.3-4.8
			l0.3-5l0-0.3l-0.4-0.3l0,0l0.4-2.6h4.8l0.4,2.6l0,0l-0.4,0.3l0,0.3l0.3,5l0.3,4.8l0.1,1c0.1,1,0.5,1.9,1.1,2.6
			c1.2,1.3,1.9,3.1,1.9,5v17.8c0,0.9-0.7,1.6-1.6,1.6H1435.1z"/>
		<path class="st2" d="M1437.4,229.6c-0.3,0-0.5-0.2-0.5-0.5v0c0-0.3,0.2-0.5,0.5-0.5h4.2c0.3,0,0.5,0.2,0.5,0.5v0
			c0,0.3-0.2,0.5-0.5,0.5H1437.4z"/>
		<path class="st11" d="M1437.1,232.8l0-0.3l-0.4-0.3c0,0,0.1,0,0.1,0h5.3c0,0,0.1,0,0.1,0l-0.4,0.3l0,0.3H1437.1z"/>
		<path class="st12" d="M1437.8,232.9l-0.5,9.8l-0.1,1c-0.1,1.2-0.6,2.3-1.4,3.2c-1.1,1.2-1.7,2.7-1.7,4.3v17.8
			c0,0.4,0.3,0.7,0.7,0.7h1.8v-18.5c0-1.6,0.3-2.7,1.3-3.9c1.3-1.6,0.9-4.6,0.9-4.6l0-9.8H1437.8z"/>
		<path class="st2" d="M1453.1,270.7c-0.9,0-1.6-0.7-1.6-1.6v-17.8c0-1.8,0.7-3.6,1.9-5c0.7-0.7,1.1-1.7,1.1-2.6l0.1-1l0.3-4.8
			l0.3-5l0-0.3l-0.4-0.3l0,0l0.4-2.6h4.8l0.4,2.6l0,0l-0.4,0.3l0,0.3l0.3,5l0.3,4.8l0.1,1c0.1,1,0.5,1.9,1.1,2.6
			c1.2,1.3,1.9,3.1,1.9,5v17.8c0,0.9-0.7,1.6-1.6,1.6H1453.1z"/>
		<path class="st2" d="M1455.5,229.6c-0.3,0-0.5-0.2-0.5-0.5v0c0-0.3,0.2-0.5,0.5-0.5h4.2c0.3,0,0.5,0.2,0.5,0.5v0
			c0,0.3-0.2,0.5-0.5,0.5H1455.5z"/>
		<path class="st11" d="M1455.2,232.8l0-0.3l-0.4-0.3c0,0,0.1,0,0.1,0h5.3c0,0,0.1,0,0.1,0l-0.4,0.3l0,0.3H1455.2z"/>
		<path class="st12" d="M1455.9,232.9l-0.5,9.8l-0.1,1c-0.1,1.2-0.6,2.3-1.4,3.2c-1.1,1.2-1.7,2.7-1.7,4.3v17.8
			c0,0.4,0.3,0.7,0.7,0.7h1.8v-18.5c0-1.6,0.3-2.7,1.3-3.9c1.3-1.6,0.9-4.6,0.9-4.6l0-9.8H1455.9z"/>
		<path class="st2" d="M1471.1,270.7c-0.9,0-1.6-0.7-1.6-1.6v-17.8c0-1.8,0.7-3.6,1.9-5c0.7-0.7,1.1-1.7,1.1-2.6l0.1-1l0.3-4.8
			l0.3-5l0-0.3l-0.4-0.3l0,0l0.4-2.6h4.8l0.4,2.6l0,0l-0.4,0.3l0,0.3l0.3,5l0.3,4.8l0.1,1c0.1,1,0.5,1.9,1.1,2.6
			c1.2,1.3,1.9,3.1,1.9,5v17.8c0,0.9-0.7,1.6-1.6,1.6H1471.1z"/>
		<path class="st2" d="M1473.5,229.6c-0.3,0-0.5-0.2-0.5-0.5v0c0-0.3,0.2-0.5,0.5-0.5h4.2c0.3,0,0.5,0.2,0.5,0.5v0
			c0,0.3-0.2,0.5-0.5,0.5H1473.5z"/>
		<path class="st11" d="M1473.2,232.8l0-0.3l-0.4-0.3c0,0,0.1,0,0.1,0h5.3c0,0,0.1,0,0.1,0l-0.4,0.3l0,0.3H1473.2z"/>
		<path class="st12" d="M1473.9,232.9l-0.5,9.8l-0.1,1c-0.1,1.2-0.6,2.3-1.4,3.2c-1.1,1.2-1.7,2.7-1.7,4.3v17.8
			c0,0.4,0.3,0.7,0.7,0.7h1.8v-18.5c0-1.6,0.3-2.7,1.3-3.9c1.3-1.6,0.9-4.6,0.9-4.6l0-9.8H1473.9z"/>
		<path class="st2" d="M1489.2,270.7c-0.9,0-1.6-0.7-1.6-1.6v-17.8c0-1.8,0.7-3.6,1.9-5c0.7-0.7,1.1-1.7,1.1-2.6l0.1-1l0.3-4.8
			l0.3-5l0-0.3l-0.4-0.3l0,0l0.4-2.6h4.8l0.4,2.6l0,0l-0.4,0.3l0,0.3l0.3,5l0.3,4.8l0.1,1c0.1,1,0.5,1.9,1.1,2.6
			c1.2,1.3,1.9,3.1,1.9,5v17.8c0,0.9-0.7,1.6-1.6,1.6H1489.2z"/>
		<path class="st2" d="M1491.5,229.6c-0.3,0-0.5-0.2-0.5-0.5v0c0-0.3,0.2-0.5,0.5-0.5h4.2c0.3,0,0.5,0.2,0.5,0.5v0
			c0,0.3-0.2,0.5-0.5,0.5H1491.5z"/>
		<path class="st11" d="M1491.3,232.8l0-0.3l-0.4-0.3c0,0,0.1,0,0.1,0h5.3c0,0,0.1,0,0.1,0l-0.4,0.3l0,0.3H1491.3z"/>
		<path class="st12" d="M1492,232.9l-0.5,9.8l-0.1,1c-0.1,1.2-0.6,2.3-1.4,3.2c-1.1,1.2-1.7,2.7-1.7,4.3v17.8c0,0.4,0.3,0.7,0.7,0.7
			h1.8v-18.5c0-1.6,0.3-2.7,1.3-3.9c1.3-1.6,0.9-4.6,0.9-4.6l0-9.8H1492z"/>
		<path class="st2" d="M1507.2,270.7c-0.9,0-1.6-0.7-1.6-1.6v-17.8c0-1.8,0.7-3.6,1.9-5c0.7-0.7,1.1-1.7,1.1-2.6l0.1-1l0.3-4.8
			l0.3-5l0-0.3l-0.4-0.3l0,0l0.4-2.6h4.8l0.4,2.6l0,0l-0.4,0.3l0,0.3l0.3,5l0.3,4.8l0.1,1c0.1,1,0.5,1.9,1.1,2.6
			c1.2,1.3,1.9,3.1,1.9,5v17.8c0,0.9-0.7,1.6-1.6,1.6H1507.2z"/>
		<path class="st2" d="M1509.6,229.6c-0.3,0-0.5-0.2-0.5-0.5v0c0-0.3,0.2-0.5,0.5-0.5h4.2c0.3,0,0.5,0.2,0.5,0.5v0
			c0,0.3-0.2,0.5-0.5,0.5H1509.6z"/>
		<path class="st11" d="M1509.3,232.8l0-0.3l-0.4-0.3c0,0,0.1,0,0.1,0h5.3c0,0,0.1,0,0.1,0l-0.4,0.3l0,0.3H1509.3z"/>
		<path class="st12" d="M1510,232.9l-0.5,9.8l-0.1,1c-0.1,1.2-0.6,2.3-1.4,3.2c-1.1,1.2-1.7,2.7-1.7,4.3v17.8c0,0.4,0.3,0.7,0.7,0.7
			h1.8v-18.5c0-1.6,0.3-2.7,1.3-3.9c1.3-1.6,0.9-4.6,0.9-4.6l0-9.8H1510z"/>
	</g>
	<g class="st13">
		<polygon class="st9" points="1318.1,333.5 1318.1,295.5 1308.6,295.5 1308.6,333.5 1303.5,333.5 1303.5,336.9 1308.6,336.9 
			1318.1,336.9 1323.2,336.9 1323.2,333.5 		"/>
		<rect x="1318" y="295.5" class="st9" width="263.9" height="9.3"/>
		<g>
			<path class="st10" d="M1444.8,273v21.3h-138c-1.3,0-2.5-0.2-3.6-0.6c-4.1-1.5-7.1-5.4-7.1-10c0-3,1.2-5.6,3.1-7.5
				c1.1-1.1,2.4-2,3.9-2.5c1.1-0.4,2.3-0.6,3.6-0.6H1444.8z"/>
			<path class="st9" d="M1444.8,271.7v2.5h-138c-1.3,0-2.5,0.3-3.6,0.7c-3.4,1.4-5.8,4.8-5.8,8.7c0,3.9,2.4,7.2,5.8,8.7
				c1.1,0.5,2.3,0.7,3.6,0.7h138v2.5h-138c-1.3,0-2.5-0.2-3.6-0.6c-4.8-1.5-8.3-6.1-8.3-11.4c0-5.3,3.5-9.8,8.3-11.4
				c1.1-0.4,2.3-0.6,3.6-0.6H1444.8z"/>
			<path class="st9" d="M1444.8,279.1v9.2h-136.5c-2.2,0-4.1-1.7-4.4-3.9c-0.1-0.2-0.1-0.5-0.1-0.7c0-0.5,0.1-0.9,0.3-1.3
				c0.1-0.2,0.2-0.4,0.3-0.5c0,0,0-0.1,0.1-0.1c0.8-1.7,2.2-2.6,3.9-2.6H1444.8z"/>
			<path class="st4" d="M1307.3,276c-4.2,0-7.7,3.4-7.7,7.7c0,4.2,3.4,7.7,7.7,7.7c4.2,0,7.7-3.4,7.7-7.7
				C1314.9,279.4,1311.5,276,1307.3,276z"/>
			<path class="st0" d="M1307.3,287c-1.9,0-3.4-1.5-3.4-3.4c0-1.9,1.5-3.4,3.4-3.4c1.9,0,3.4,1.5,3.4,3.4
				C1310.6,285.5,1309.1,287,1307.3,287z"/>
			<path class="st4" d="M1337.8,276c-4.2,0-7.7,3.4-7.7,7.7c0,4.2,3.4,7.7,7.7,7.7c4.2,0,7.7-3.4,7.7-7.7
				C1345.5,279.4,1342.1,276,1337.8,276z"/>
			<path class="st0" d="M1337.8,287c-1.9,0-3.4-1.5-3.4-3.4c0-1.9,1.5-3.4,3.4-3.4c1.9,0,3.4,1.5,3.4,3.4
				C1341.2,285.5,1339.7,287,1337.8,287z"/>
			<path class="st4" d="M1368.4,276c-4.2,0-7.7,3.4-7.7,7.7c0,4.2,3.4,7.7,7.7,7.7c4.2,0,7.7-3.4,7.7-7.7
				C1376.1,279.4,1372.6,276,1368.4,276z"/>
			<path class="st0" d="M1368.4,287c-1.9,0-3.4-1.5-3.4-3.4c0-1.9,1.5-3.4,3.4-3.4c1.9,0,3.4,1.5,3.4,3.4
				C1371.8,285.5,1370.2,287,1368.4,287z"/>
			<path class="st4" d="M1399,276c-4.2,0-7.7,3.4-7.7,7.7c0,4.2,3.4,7.7,7.7,7.7c4.2,0,7.7-3.4,7.7-7.7
				C1406.6,279.4,1403.2,276,1399,276z"/>
			<path class="st0" d="M1399,287c-1.9,0-3.4-1.5-3.4-3.4c0-1.9,1.5-3.4,3.4-3.4c1.9,0,3.4,1.5,3.4,3.4
				C1402.3,285.5,1400.8,287,1399,287z"/>
			<path class="st4" d="M1429.5,276c-4.2,0-7.7,3.4-7.7,7.7c0,4.2,3.4,7.7,7.7,7.7s7.7-3.4,7.7-7.7
				C1437.2,279.4,1433.8,276,1429.5,276z"/>
			<path class="st0" d="M1429.5,287c-1.9,0-3.4-1.5-3.4-3.4c0-1.9,1.5-3.4,3.4-3.4c1.9,0,3.4,1.5,3.4,3.4
				C1432.9,285.5,1431.4,287,1429.5,287z"/>
		</g>
		<g>
			<path class="st10" d="M1444.8,294.3V273h138c1.3,0,2.5,0.2,3.6,0.6c4.1,1.5,7.1,5.4,7.1,10c0,3-1.2,5.6-3.1,7.5
				c-1.1,1.1-2.4,2-3.9,2.5c-1.1,0.4-2.3,0.6-3.6,0.6H1444.8z"/>
			<path class="st9" d="M1444.8,295.6V293h138c1.3,0,2.5-0.3,3.6-0.7c3.4-1.4,5.8-4.8,5.8-8.7c0-3.9-2.4-7.2-5.8-8.7
				c-1.1-0.5-2.3-0.7-3.6-0.7h-138v-2.5h138c1.3,0,2.5,0.2,3.6,0.6c4.8,1.5,8.3,6.1,8.3,11.4c0,5.3-3.5,9.8-8.3,11.4
				c-1.1,0.4-2.3,0.6-3.6,0.6H1444.8z"/>
			<path class="st9" d="M1444.8,288.2v-9.2h136.5c2.2,0,4.1,1.7,4.4,3.9c0.1,0.2,0.1,0.5,0.1,0.7c0,0.5-0.1,0.9-0.3,1.3
				c-0.1,0.2-0.2,0.4-0.3,0.5c0,0,0,0.1-0.1,0.1c-0.8,1.7-2.2,2.6-3.9,2.6H1444.8z"/>
			<path class="st4" d="M1582.4,291.3c4.2,0,7.7-3.4,7.7-7.7c0-4.2-3.4-7.7-7.7-7.7c-4.2,0-7.7,3.4-7.7,7.7
				C1574.7,287.9,1578.1,291.3,1582.4,291.3z"/>
			<path class="st0" d="M1582.4,280.3c1.9,0,3.4,1.5,3.4,3.4c0,1.9-1.5,3.4-3.4,3.4c-1.9,0-3.4-1.5-3.4-3.4
				C1579,281.8,1580.5,280.3,1582.4,280.3z"/>
			<path class="st4" d="M1551.8,291.3c4.2,0,7.7-3.4,7.7-7.7c0-4.2-3.4-7.7-7.7-7.7c-4.2,0-7.7,3.4-7.7,7.7
				C1544.1,287.9,1547.6,291.3,1551.8,291.3z"/>
			<path class="st0" d="M1551.8,280.3c1.9,0,3.4,1.5,3.4,3.4c0,1.9-1.5,3.4-3.4,3.4c-1.9,0-3.4-1.5-3.4-3.4
				C1548.4,281.8,1550,280.3,1551.8,280.3z"/>
			<path class="st4" d="M1521.2,291.3c4.2,0,7.7-3.4,7.7-7.7c0-4.2-3.4-7.7-7.7-7.7c-4.2,0-7.7,3.4-7.7,7.7
				C1513.6,287.9,1517,291.3,1521.2,291.3z"/>
			<path class="st0" d="M1521.2,280.3c1.9,0,3.4,1.5,3.4,3.4c0,1.9-1.5,3.4-3.4,3.4c-1.9,0-3.4-1.5-3.4-3.4
				C1517.9,281.8,1519.4,280.3,1521.2,280.3z"/>
			<path class="st4" d="M1490.7,291.3c4.2,0,7.7-3.4,7.7-7.7c0-4.2-3.4-7.7-7.7-7.7c-4.2,0-7.7,3.4-7.7,7.7
				C1483,287.9,1486.4,291.3,1490.7,291.3z"/>
			<path class="st0" d="M1490.7,280.3c1.9,0,3.4,1.5,3.4,3.4c0,1.9-1.5,3.4-3.4,3.4c-1.9,0-3.4-1.5-3.4-3.4
				C1487.3,281.8,1488.8,280.3,1490.7,280.3z"/>
			<path class="st4" d="M1460.1,291.3c4.2,0,7.7-3.4,7.7-7.7c0-4.2-3.4-7.7-7.7-7.7c-4.2,0-7.7,3.4-7.7,7.7
				C1452.4,287.9,1455.9,291.3,1460.1,291.3z"/>
			<path class="st0" d="M1460.1,280.3c1.9,0,3.4,1.5,3.4,3.4c0,1.9-1.5,3.4-3.4,3.4c-1.9,0-3.4-1.5-3.4-3.4
				C1456.7,281.8,1458.3,280.3,1460.1,280.3z"/>
		</g>
		<polygon class="st9" points="1376.3,333.5 1376.3,303.7 1366.7,303.7 1366.7,333.5 1361.6,333.5 1361.6,336.9 1366.7,336.9 
			1376.3,336.9 1381.3,336.9 1381.3,333.5 		"/>
		<polygon class="st9" points="1434.4,333.5 1434.4,303.7 1424.8,303.7 1424.8,333.5 1419.7,333.5 1419.7,336.9 1424.8,336.9 
			1434.4,336.9 1439.5,336.9 1439.5,333.5 		"/>
		<polygon class="st9" points="1492.5,333.5 1492.5,303.7 1483,303.7 1483,333.5 1477.9,333.5 1477.9,336.9 1483,336.9 
			1492.5,336.9 1497.6,336.9 1497.6,333.5 		"/>
		<polygon class="st9" points="1550.9,333.5 1550.9,303.7 1541.3,303.7 1541.3,333.5 1536.2,333.5 1536.2,336.9 1541.3,336.9 
			1550.9,336.9 1556,336.9 1556,333.5 		"/>
	</g>
	<g>
		<path class="st4" d="M1314.4,227.8h-3.1c-0.6,0-1-0.4-1-1v-38.9c0-0.6,0.4-1,1-1h3.1c0.5,0,1,0.4,1,1v38.9
			C1315.4,227.4,1315,227.8,1314.4,227.8z"/>
		<path class="st4" d="M1318.6,203.9h-11.5c-2,0-3.6-1.6-3.6-3.6v-35.9h18.7v35.9C1322.2,202.3,1320.6,203.9,1318.6,203.9z"/>
		<path class="st4" d="M1321.9,175.1h-18.1c-2,0-3.6-1.6-3.6-3.6v-45.8c0-3.5,2.8-6.3,6.3-6.3h12.5c3.5,0,6.3,2.8,6.3,6.3v45.8
			C1325.4,173.6,1323.8,175.1,1321.9,175.1z"/>
	</g>
	<polygon class="st0" points="1279.1,264.1 1274,259.1 1274,146.3 1299.3,146.3 1299.3,151.3 1279.1,151.3 	"/>
	<polygon class="st0" points="1286.3,277.8 1281.3,272.8 1281.3,158.5 1299.3,158.5 1299.3,163.5 1286.3,163.5 	"/>
	<rect x="1294.6" y="144.2" class="st0" width="5.3" height="9.3"/>
	<rect x="1294.6" y="156.1" class="st0" width="5.3" height="9.3"/>
	<g class="st8">
		<polygon class="st9" points="1314.7,396.6 1314.7,358.6 1305.1,358.6 1305.1,396.6 1300,396.6 1300,400 1305.1,400 1314.7,400 
			1319.8,400 1319.8,396.6 		"/>
		<rect x="1314.6" y="358.6" class="st9" width="263.9" height="9.3"/>
		<g>
			<path class="st10" d="M1441.4,336.1v21.3h-138c-1.3,0-2.5-0.2-3.6-0.6c-4.1-1.5-7.1-5.4-7.1-10c0-3,1.2-5.6,3.1-7.5
				c1.1-1.1,2.4-2,3.9-2.5c1.1-0.4,2.3-0.6,3.6-0.6H1441.4z"/>
			<path class="st9" d="M1441.4,334.9v2.5h-138c-1.3,0-2.5,0.3-3.6,0.7c-3.4,1.4-5.8,4.8-5.8,8.7c0,3.9,2.4,7.2,5.8,8.7
				c1.1,0.5,2.3,0.7,3.6,0.7h138v2.5h-138c-1.3,0-2.5-0.2-3.6-0.6c-4.8-1.5-8.3-6.1-8.3-11.4c0-5.3,3.5-9.8,8.3-11.4
				c1.1-0.4,2.3-0.6,3.6-0.6H1441.4z"/>
			<path class="st9" d="M1441.4,342.2v9.2H1305c-2.2,0-4.1-1.7-4.4-3.9c-0.1-0.2-0.1-0.5-0.1-0.7c0-0.5,0.1-0.9,0.3-1.3
				c0.1-0.2,0.2-0.4,0.3-0.5c0,0,0-0.1,0.1-0.1c0.8-1.7,2.2-2.6,3.9-2.6H1441.4z"/>
			<path class="st4" d="M1303.8,339.1c-4.2,0-7.7,3.4-7.7,7.7c0,4.2,3.4,7.7,7.7,7.7c4.2,0,7.7-3.4,7.7-7.7
				C1311.5,342.5,1308.1,339.1,1303.8,339.1z"/>
			<path class="st0" d="M1303.8,350.2c-1.9,0-3.4-1.5-3.4-3.4c0-1.9,1.5-3.4,3.4-3.4c1.9,0,3.4,1.5,3.4,3.4
				C1307.2,348.6,1305.7,350.2,1303.8,350.2z"/>
			<path class="st4" d="M1334.4,339.1c-4.2,0-7.7,3.4-7.7,7.7c0,4.2,3.4,7.7,7.7,7.7c4.2,0,7.7-3.4,7.7-7.7
				C1342.1,342.5,1338.7,339.1,1334.4,339.1z"/>
			<path class="st0" d="M1334.4,350.2c-1.9,0-3.4-1.5-3.4-3.4c0-1.9,1.5-3.4,3.4-3.4c1.9,0,3.4,1.5,3.4,3.4
				C1337.8,348.6,1336.3,350.2,1334.4,350.2z"/>
			<path class="st4" d="M1365,339.1c-4.2,0-7.7,3.4-7.7,7.7c0,4.2,3.4,7.7,7.7,7.7c4.2,0,7.7-3.4,7.7-7.7
				C1372.7,342.5,1369.2,339.1,1365,339.1z"/>
			<path class="st0" d="M1365,350.2c-1.9,0-3.4-1.5-3.4-3.4c0-1.9,1.5-3.4,3.4-3.4c1.9,0,3.4,1.5,3.4,3.4
				C1368.3,348.6,1366.8,350.2,1365,350.2z"/>
			<path class="st4" d="M1395.5,339.1c-4.2,0-7.7,3.4-7.7,7.7c0,4.2,3.4,7.7,7.7,7.7c4.2,0,7.7-3.4,7.7-7.7
				C1403.2,342.5,1399.8,339.1,1395.5,339.1z"/>
			<path class="st0" d="M1395.5,350.2c-1.9,0-3.4-1.5-3.4-3.4c0-1.9,1.5-3.4,3.4-3.4c1.9,0,3.4,1.5,3.4,3.4
				C1398.9,348.6,1397.4,350.2,1395.5,350.2z"/>
			<path class="st4" d="M1426.1,339.1c-4.2,0-7.7,3.4-7.7,7.7c0,4.2,3.4,7.7,7.7,7.7s7.7-3.4,7.7-7.7
				C1433.8,342.5,1430.4,339.1,1426.1,339.1z"/>
			<path class="st0" d="M1426.1,350.2c-1.9,0-3.4-1.5-3.4-3.4c0-1.9,1.5-3.4,3.4-3.4c1.9,0,3.4,1.5,3.4,3.4
				C1429.5,348.6,1428,350.2,1426.1,350.2z"/>
		</g>
		<g>
			<path class="st10" d="M1441.4,357.4v-21.3h138c1.3,0,2.5,0.2,3.6,0.6c4.1,1.5,7.1,5.4,7.1,10c0,3-1.2,5.6-3.1,7.5
				c-1.1,1.1-2.4,2-3.9,2.5c-1.1,0.4-2.3,0.6-3.6,0.6H1441.4z"/>
			<path class="st9" d="M1441.4,358.7v-2.5h138c1.3,0,2.5-0.3,3.6-0.7c3.4-1.4,5.8-4.8,5.8-8.7c0-3.9-2.4-7.2-5.8-8.7
				c-1.1-0.5-2.3-0.7-3.6-0.7h-138v-2.5h138c1.3,0,2.5,0.2,3.6,0.6c4.8,1.5,8.3,6.1,8.3,11.4c0,5.3-3.5,9.8-8.3,11.4
				c-1.1,0.4-2.3,0.6-3.6,0.6H1441.4z"/>
			<path class="st9" d="M1441.4,351.4v-9.2h136.5c2.2,0,4.1,1.7,4.4,3.9c0.1,0.2,0.1,0.5,0.1,0.7c0,0.5-0.1,0.9-0.3,1.3
				c-0.1,0.2-0.2,0.4-0.3,0.5c0,0,0,0.1-0.1,0.1c-0.8,1.7-2.2,2.6-3.9,2.6H1441.4z"/>
			<path class="st4" d="M1579,354.4c4.2,0,7.7-3.4,7.7-7.7c0-4.2-3.4-7.7-7.7-7.7c-4.2,0-7.7,3.4-7.7,7.7
				C1571.3,351,1574.7,354.4,1579,354.4z"/>
			<path class="st0" d="M1579,343.4c1.9,0,3.4,1.5,3.4,3.4c0,1.9-1.5,3.4-3.4,3.4c-1.9,0-3.4-1.5-3.4-3.4
				C1575.6,344.9,1577.1,343.4,1579,343.4z"/>
			<path class="st4" d="M1548.4,354.4c4.2,0,7.7-3.4,7.7-7.7c0-4.2-3.4-7.7-7.7-7.7c-4.2,0-7.7,3.4-7.7,7.7
				C1540.7,351,1544.2,354.4,1548.4,354.4z"/>
			<path class="st0" d="M1548.4,343.4c1.9,0,3.4,1.5,3.4,3.4c0,1.9-1.5,3.4-3.4,3.4c-1.9,0-3.4-1.5-3.4-3.4
				C1545,344.9,1546.5,343.4,1548.4,343.4z"/>
			<path class="st4" d="M1517.8,354.4c4.2,0,7.7-3.4,7.7-7.7c0-4.2-3.4-7.7-7.7-7.7c-4.2,0-7.7,3.4-7.7,7.7
				C1510.2,351,1513.6,354.4,1517.8,354.4z"/>
			<path class="st0" d="M1517.8,343.4c1.9,0,3.4,1.5,3.4,3.4c0,1.9-1.5,3.4-3.4,3.4c-1.9,0-3.4-1.5-3.4-3.4
				C1514.5,344.9,1516,343.4,1517.8,343.4z"/>
			<path class="st4" d="M1487.3,354.4c4.2,0,7.7-3.4,7.7-7.7c0-4.2-3.4-7.7-7.7-7.7c-4.2,0-7.7,3.4-7.7,7.7
				C1479.6,351,1483,354.4,1487.3,354.4z"/>
			<path class="st0" d="M1487.3,343.4c1.9,0,3.4,1.5,3.4,3.4c0,1.9-1.5,3.4-3.4,3.4c-1.9,0-3.4-1.5-3.4-3.4
				C1483.9,344.9,1485.4,343.4,1487.3,343.4z"/>
			<path class="st4" d="M1456.7,354.4c4.2,0,7.7-3.4,7.7-7.7c0-4.2-3.4-7.7-7.7-7.7c-4.2,0-7.7,3.4-7.7,7.7
				C1449,351,1452.5,354.4,1456.7,354.4z"/>
			<path class="st0" d="M1456.7,343.4c1.9,0,3.4,1.5,3.4,3.4c0,1.9-1.5,3.4-3.4,3.4c-1.9,0-3.4-1.5-3.4-3.4
				C1453.3,344.9,1454.8,343.4,1456.7,343.4z"/>
		</g>
		<polygon class="st9" points="1372.8,396.6 1372.8,366.8 1363.3,366.8 1363.3,396.6 1358.2,396.6 1358.2,400 1363.3,400 
			1372.8,400 1377.9,400 1377.9,396.6 		"/>
		<polygon class="st9" points="1431,396.6 1431,366.8 1421.4,366.8 1421.4,396.6 1416.3,396.6 1416.3,400 1421.4,400 1431,400 
			1436.1,400 1436.1,396.6 		"/>
		<polygon class="st9" points="1489.1,396.6 1489.1,366.8 1479.5,366.8 1479.5,396.6 1474.5,396.6 1474.5,400 1479.5,400 
			1489.1,400 1494.2,400 1494.2,396.6 		"/>
		<polygon class="st9" points="1547.5,396.6 1547.5,366.8 1537.9,366.8 1537.9,396.6 1532.8,396.6 1532.8,400 1537.9,400 
			1547.5,400 1552.6,400 1552.6,396.6 		"/>
	</g>
	<g>
		<path class="st4" d="M1313.6,305.3h-3.1c-0.6,0-1-0.5-1-1v-38.9c0-0.6,0.4-1,1-1h3.1c0.5,0,1,0.4,1,1v38.9
			C1314.6,304.8,1314.1,305.3,1313.6,305.3z"/>
		<path class="st4" d="M1317.8,273.3h-11.5c-2,0-3.6-1.6-3.6-3.6v-35.9h18.7v35.9C1321.4,271.7,1319.8,273.3,1317.8,273.3z"/>
		<path class="st4" d="M1321.1,244.5H1303c-2,0-3.6-1.6-3.6-3.6v-45.8c0-3.5,2.8-6.3,6.3-6.3h12.5c3.5,0,6.3,2.8,6.3,6.3V241
			C1324.6,242.9,1323,244.5,1321.1,244.5z"/>
	</g>
	<g>
		<polygon class="st0" points="1279,264.1 1274,259.1 1274,210.6 1299.2,210.6 1299.2,215.6 1279,215.6 		"/>
		<polygon class="st0" points="1286.3,281.6 1281.2,276.6 1281.2,222.8 1299.2,222.8 1299.2,227.8 1286.3,227.8 		"/>
		<rect x="1294.6" y="208.5" class="st0" width="5.3" height="9.3"/>
		<rect x="1294.6" y="220.4" class="st0" width="5.3" height="9.3"/>
	</g>
	<g>
		<path class="st2" d="M1324.2,299.6c-8.2,0-16.3,0-24.5,0c-2,11.3-2,22.8,0,34.1c8.2,0,16.3,0,24.5,0
			C1326.2,322.5,1326.2,310.9,1324.2,299.6z M1314.8,304.7h-5.7c-1,0-1.8-0.8-1.8-1.8c0-1,0.8-1.8,1.8-1.8h5.7c1,0,1.8,0.8,1.8,1.8
			C1316.7,303.9,1315.8,304.7,1314.8,304.7z"/>
		<g>
			<path class="st12" d="M1303.3,300.7h-2.7c-1.8,10.6-1.8,21.4,0,32h2.7C1301.6,322.1,1301.6,311.3,1303.3,300.7z"/>
			<path class="st12" d="M1306.5,300.7h-1.9c-1.8,10.6-1.8,21.4,0,32h1.9C1304.7,322.1,1304.7,311.3,1306.5,300.7z"/>
			<path class="st2" d="M1314.9,305.7C1314.9,305.7,1314.9,305.7,1314.9,305.7c-0.1,0-0.1,0-0.1,0H1314.9z"/>
		</g>
		<path class="st2" d="M1325,299.5c0,0.5-0.4,0.9-0.9,0.9h-24.3c-0.5,0-0.9-0.4-0.9-0.9l0,0c0-0.5,0.4-0.9,0.9-0.9h24.3
			C1324.6,298.6,1325,299,1325,299.5L1325,299.5z"/>
		<path class="st2" d="M1325,333.7c0,0.5-0.4,0.9-0.9,0.9h-24.3c-0.5,0-0.9-0.4-0.9-0.9l0,0c0-0.5,0.4-0.9,0.9-0.9h24.3
			C1324.6,332.9,1325,333.3,1325,333.7L1325,333.7z"/>
		<g>
			<path class="st2" d="M1325.9,309.2c0,0.5-0.4,0.9-0.9,0.9h-26c-0.5,0-0.9-0.4-0.9-0.9l0,0c0-0.5,0.4-0.9,0.9-0.9h26
				C1325.5,308.3,1325.9,308.7,1325.9,309.2L1325.9,309.2z"/>
			<path class="st2" d="M1325.9,324.2c0,0.5-0.4,0.9-0.9,0.9h-26c-0.5,0-0.9-0.4-0.9-0.9l0,0c0-0.5,0.4-0.9,0.9-0.9h26
				C1325.5,323.3,1325.9,323.7,1325.9,324.2L1325.9,324.2z"/>
		</g>
		<path class="st2" d="M1358.9,299.6c-8.2,0-16.3,0-24.5,0c-2,11.3-2,22.8,0,34.1c8.2,0,16.3,0,24.5,0
			C1360.9,322.5,1360.9,310.9,1358.9,299.6z M1349.6,304.7h-5.7c-1,0-1.8-0.8-1.8-1.8c0-1,0.8-1.8,1.8-1.8h5.7c1,0,1.8,0.8,1.8,1.8
			C1351.4,303.9,1350.6,304.7,1349.6,304.7z"/>
		<g>
			<path class="st12" d="M1338.1,300.7h-2.7c-1.8,10.6-1.8,21.4,0,32h2.7C1336.3,322.1,1336.3,311.3,1338.1,300.7z"/>
			<path class="st12" d="M1341.2,300.7h-1.9c-1.8,10.6-1.8,21.4,0,32h1.9C1339.4,322.1,1339.4,311.3,1341.2,300.7z"/>
			<path class="st2" d="M1349.7,305.7C1349.6,305.7,1349.6,305.7,1349.7,305.7c-0.1,0-0.1,0-0.1,0H1349.7z"/>
		</g>
		<path class="st2" d="M1359.7,299.5c0,0.5-0.4,0.9-0.9,0.9h-24.3c-0.5,0-0.9-0.4-0.9-0.9l0,0c0-0.5,0.4-0.9,0.9-0.9h24.3
			C1359.3,298.6,1359.7,299,1359.7,299.5L1359.7,299.5z"/>
		<path class="st2" d="M1359.7,333.7c0,0.5-0.4,0.9-0.9,0.9h-24.3c-0.5,0-0.9-0.4-0.9-0.9l0,0c0-0.5,0.4-0.9,0.9-0.9h24.3
			C1359.3,332.9,1359.7,333.3,1359.7,333.7L1359.7,333.7z"/>
		<g>
			<path class="st2" d="M1360.6,309.2c0,0.5-0.4,0.9-0.9,0.9h-26c-0.5,0-0.9-0.4-0.9-0.9l0,0c0-0.5,0.4-0.9,0.9-0.9h26
				C1360.2,308.3,1360.6,308.7,1360.6,309.2L1360.6,309.2z"/>
			<path class="st2" d="M1360.6,324.2c0,0.5-0.4,0.9-0.9,0.9h-26c-0.5,0-0.9-0.4-0.9-0.9l0,0c0-0.5,0.4-0.9,0.9-0.9h26
				C1360.2,323.3,1360.6,323.7,1360.6,324.2L1360.6,324.2z"/>
		</g>
		<path class="st2" d="M1393.6,299.6c-8.2,0-16.3,0-24.5,0c-2,11.3-2,22.8,0,34.1c8.2,0,16.3,0,24.5,0
			C1395.6,322.5,1395.6,310.9,1393.6,299.6z M1384.3,304.7h-5.7c-1,0-1.8-0.8-1.8-1.8c0-1,0.8-1.8,1.8-1.8h5.7c1,0,1.8,0.8,1.8,1.8
			C1386.1,303.9,1385.3,304.7,1384.3,304.7z"/>
		<g>
			<path class="st12" d="M1372.8,300.7h-2.7c-1.8,10.6-1.8,21.4,0,32h2.7C1371,322.1,1371,311.3,1372.8,300.7z"/>
			<path class="st12" d="M1375.9,300.7h-1.9c-1.8,10.6-1.8,21.4,0,32h1.9C1374.1,322.1,1374.1,311.3,1375.9,300.7z"/>
			<path class="st2" d="M1384.4,305.7C1384.3,305.7,1384.3,305.7,1384.4,305.7c-0.1,0-0.1,0-0.1,0H1384.4z"/>
		</g>
		<path class="st2" d="M1394.4,299.5c0,0.5-0.4,0.9-0.9,0.9h-24.3c-0.5,0-0.9-0.4-0.9-0.9l0,0c0-0.5,0.4-0.9,0.9-0.9h24.3
			C1394,298.6,1394.4,299,1394.4,299.5L1394.4,299.5z"/>
		<path class="st2" d="M1394.4,333.7c0,0.5-0.4,0.9-0.9,0.9h-24.3c-0.5,0-0.9-0.4-0.9-0.9l0,0c0-0.5,0.4-0.9,0.9-0.9h24.3
			C1394,332.9,1394.4,333.3,1394.4,333.7L1394.4,333.7z"/>
		<g>
			<path class="st2" d="M1395.3,309.2c0,0.5-0.4,0.9-0.9,0.9h-26c-0.5,0-0.9-0.4-0.9-0.9l0,0c0-0.5,0.4-0.9,0.9-0.9h26
				C1394.9,308.3,1395.3,308.7,1395.3,309.2L1395.3,309.2z"/>
			<path class="st2" d="M1395.3,324.2c0,0.5-0.4,0.9-0.9,0.9h-26c-0.5,0-0.9-0.4-0.9-0.9l0,0c0-0.5,0.4-0.9,0.9-0.9h26
				C1394.9,323.3,1395.3,323.7,1395.3,324.2L1395.3,324.2z"/>
		</g>
		<path class="st2" d="M1428.3,299.6c-8.2,0-16.3,0-24.5,0c-2,11.3-2,22.8,0,34.1c8.2,0,16.3,0,24.5,0
			C1430.3,322.5,1430.3,310.9,1428.3,299.6z M1419,304.7h-5.7c-1,0-1.8-0.8-1.8-1.8c0-1,0.8-1.8,1.8-1.8h5.7c1,0,1.8,0.8,1.8,1.8
			C1420.8,303.9,1420,304.7,1419,304.7z"/>
		<g>
			<path class="st12" d="M1407.5,300.7h-2.7c-1.8,10.6-1.8,21.4,0,32h2.7C1405.7,322.1,1405.7,311.3,1407.5,300.7z"/>
			<path class="st12" d="M1410.6,300.7h-1.9c-1.8,10.6-1.8,21.4,0,32h1.9C1408.8,322.1,1408.8,311.3,1410.6,300.7z"/>
			<path class="st2" d="M1419.1,305.7C1419.1,305.7,1419,305.7,1419.1,305.7c-0.1,0-0.1,0-0.1,0H1419.1z"/>
		</g>
		<path class="st2" d="M1429.1,299.5c0,0.5-0.4,0.9-0.9,0.9H1404c-0.5,0-0.9-0.4-0.9-0.9l0,0c0-0.5,0.4-0.9,0.9-0.9h24.3
			C1428.7,298.6,1429.1,299,1429.1,299.5L1429.1,299.5z"/>
		<path class="st2" d="M1429.1,333.7c0,0.5-0.4,0.9-0.9,0.9H1404c-0.5,0-0.9-0.4-0.9-0.9l0,0c0-0.5,0.4-0.9,0.9-0.9h24.3
			C1428.7,332.9,1429.1,333.3,1429.1,333.7L1429.1,333.7z"/>
		<g>
			<path class="st2" d="M1430,309.2c0,0.5-0.4,0.9-0.9,0.9h-26c-0.5,0-0.9-0.4-0.9-0.9l0,0c0-0.5,0.4-0.9,0.9-0.9h26
				C1429.6,308.3,1430,308.7,1430,309.2L1430,309.2z"/>
			<path class="st2" d="M1430,324.2c0,0.5-0.4,0.9-0.9,0.9h-26c-0.5,0-0.9-0.4-0.9-0.9l0,0c0-0.5,0.4-0.9,0.9-0.9h26
				C1429.6,323.3,1430,323.7,1430,324.2L1430,324.2z"/>
		</g>
		<path class="st2" d="M1463.1,299.6c-8.2,0-16.3,0-24.5,0c-2,11.3-2,22.8,0,34.1c8.2,0,16.3,0,24.5,0
			C1465,322.5,1465,310.9,1463.1,299.6z M1453.7,304.7h-5.7c-1,0-1.8-0.8-1.8-1.8c0-1,0.8-1.8,1.8-1.8h5.7c1,0,1.8,0.8,1.8,1.8
			C1455.5,303.9,1454.7,304.7,1453.7,304.7z"/>
		<g>
			<path class="st12" d="M1442.2,300.7h-2.7c-1.8,10.6-1.8,21.4,0,32h2.7C1440.4,322.1,1440.4,311.3,1442.2,300.7z"/>
			<path class="st12" d="M1445.3,300.7h-1.9c-1.8,10.6-1.8,21.4,0,32h1.9C1443.5,322.1,1443.5,311.3,1445.3,300.7z"/>
			<path class="st2" d="M1453.8,305.7C1453.8,305.7,1453.7,305.7,1453.8,305.7c-0.1,0-0.1,0-0.1,0H1453.8z"/>
		</g>
		<path class="st2" d="M1463.9,299.5c0,0.5-0.4,0.9-0.9,0.9h-24.3c-0.5,0-0.9-0.4-0.9-0.9l0,0c0-0.5,0.4-0.9,0.9-0.9h24.3
			C1463.5,298.6,1463.9,299,1463.9,299.5L1463.9,299.5z"/>
		<path class="st2" d="M1463.9,333.7c0,0.5-0.4,0.9-0.9,0.9h-24.3c-0.5,0-0.9-0.4-0.9-0.9l0,0c0-0.5,0.4-0.9,0.9-0.9h24.3
			C1463.5,332.9,1463.9,333.3,1463.9,333.7L1463.9,333.7z"/>
		<g>
			<path class="st2" d="M1464.7,309.2c0,0.5-0.4,0.9-0.9,0.9h-26c-0.5,0-0.9-0.4-0.9-0.9l0,0c0-0.5,0.4-0.9,0.9-0.9h26
				C1464.3,308.3,1464.7,308.7,1464.7,309.2L1464.7,309.2z"/>
			<path class="st2" d="M1464.7,324.2c0,0.5-0.4,0.9-0.9,0.9h-26c-0.5,0-0.9-0.4-0.9-0.9l0,0c0-0.5,0.4-0.9,0.9-0.9h26
				C1464.3,323.3,1464.7,323.7,1464.7,324.2L1464.7,324.2z"/>
		</g>
		<path class="st2" d="M1498.1,299.3c-8.2,0-16.3,0-24.5,0c-2,11.3-2,22.8,0,34.1c8.2,0,16.3,0,24.5,0
			C1500,322.1,1500,310.6,1498.1,299.3z M1488.7,304.3h-5.7c-1,0-1.8-0.8-1.8-1.8c0-1,0.8-1.8,1.8-1.8h5.7c1,0,1.8,0.8,1.8,1.8
			C1490.5,303.5,1489.7,304.3,1488.7,304.3z"/>
		<g>
			<path class="st12" d="M1477.2,300.4h-2.7c-1.8,10.6-1.8,21.4,0,32h2.7C1475.4,321.8,1475.4,311,1477.2,300.4z"/>
			<path class="st12" d="M1480.3,300.4h-1.9c-1.8,10.6-1.8,21.4,0,32h1.9C1478.6,321.8,1478.6,311,1480.3,300.4z"/>
			<path class="st2" d="M1488.8,305.4C1488.8,305.4,1488.8,305.4,1488.8,305.4c-0.1,0-0.1,0-0.1,0H1488.8z"/>
		</g>
		<path class="st2" d="M1498.9,299.2c0,0.5-0.4,0.9-0.9,0.9h-24.3c-0.5,0-0.9-0.4-0.9-0.9l0,0c0-0.5,0.4-0.9,0.9-0.9h24.3
			C1498.5,298.3,1498.9,298.7,1498.9,299.2L1498.9,299.2z"/>
		<path class="st2" d="M1498.9,333.4c0,0.5-0.4,0.9-0.9,0.9h-24.3c-0.5,0-0.9-0.4-0.9-0.9l0,0c0-0.5,0.4-0.9,0.9-0.9h24.3
			C1498.5,332.5,1498.9,332.9,1498.9,333.4L1498.9,333.4z"/>
		<g>
			<path class="st2" d="M1499.7,308.8c0,0.5-0.4,0.9-0.9,0.9h-26c-0.5,0-0.9-0.4-0.9-0.9l0,0c0-0.5,0.4-0.9,0.9-0.9h26
				C1499.3,308,1499.7,308.4,1499.7,308.8L1499.7,308.8z"/>
			<path class="st2" d="M1499.7,323.9c0,0.5-0.4,0.9-0.9,0.9h-26c-0.5,0-0.9-0.4-0.9-0.9l0,0c0-0.5,0.4-0.9,0.9-0.9h26
				C1499.3,323,1499.7,323.4,1499.7,323.9L1499.7,323.9z"/>
		</g>
	</g>
	<path class="st4" d="M1176.2,237.5h-0.8c-1.4,0-2.5-1.1-2.5-2.5v-90.2c0-1.4,1.1-2.5,2.5-2.5h0.8c1.4,0,2.5,1.1,2.5,2.5V235
		C1178.7,236.3,1177.6,237.5,1176.2,237.5z"/>
	<path class="st4" d="M1203.4,237.5h-0.8c-1.4,0-2.5-1.1-2.5-2.5v-90.2c0-1.4,1.1-2.5,2.5-2.5h0.8c1.4,0,2.5,1.1,2.5,2.5V235
		C1206,236.3,1204.8,237.5,1203.4,237.5z"/>
	<path class="st14" d="M1176.2,250.5h-0.8c-1.4,0-2.5-1.1-2.5-2.5v-75.5c0-1.4,1.1-2.5,2.5-2.5h0.8c1.4,0,2.5,1.1,2.5,2.5v75.5
		C1178.7,249.3,1177.6,250.5,1176.2,250.5z"/>
	<path class="st14" d="M1203.4,250.5h-0.8c-1.4,0-2.5-1.1-2.5-2.5v-75.5c0-1.4,1.1-2.5,2.5-2.5h0.8c1.4,0,2.5,1.1,2.5,2.5v75.5
		C1206,249.3,1204.8,250.5,1203.4,250.5z"/>
	<rect x="1165.5" y="135.7" class="st0" width="47.7" height="10"/>
	<rect x="1171.6" y="145.7" class="st0" width="8.4" height="3.7"/>
	<rect x="1198.8" y="145.7" class="st0" width="8.4" height="3.7"/>
	<rect x="281.3" y="206.6" class="st0" width="4.5" height="27.2"/>
	<rect x="285.8" y="210.5" class="st0" width="3.7" height="8.4"/>
	<rect x="285.8" y="222.1" class="st0" width="3.7" height="8.4"/>
	<path class="st1" d="M262.4,144.3h-4.2c-0.4,0-0.8-0.1-1.2-0.1h-49.5H79.6H30.1c-0.4,0-0.8,0-1.2,0.1v-0.1h-4.2
		c-10.7,0-19.4,32.9-19.4,73.5c0,40.6,8.7,73.5,19.4,73.5h4.2c0.4,0,0.8,0.1,1.2,0.1h49.5h127.9H257c0.4,0,0.8,0,1.2-0.1v0.1h4.2
		c10.7,0,19.4-32.9,19.4-73.5C281.8,177.2,273.1,144.3,262.4,144.3z"/>
	<g>
		<path class="st0" d="M42.4,275.9c0,1.5,1.2,2.7,2.7,2.7l0,0c1.5,0,2.7-1.2,2.7-2.7V124c0-1.5-1.2-2.7-2.7-2.7l0,0
			c-1.5,0-2.7,1.2-2.7,2.7V275.9z"/>
		<rect x="46.7" y="179.4" class="st0" width="6.3" height="3.3"/>
		<rect x="46.7" y="263.6" class="st0" width="6.3" height="3.3"/>
	</g>
	<g>
		<path class="st4" d="M217.8,217.8c0,13.1-10.7,23.8-23.8,23.8c-13.1,0-23.8-10.7-23.8-23.8c0-13.1,10.7-23.8,23.8-23.8
			C207.1,194,217.8,204.7,217.8,217.8z"/>
		<path class="st0" d="M210.1,217.8c0,8.9-7.2,16.1-16.1,16.1c-8.9,0-16.1-7.2-16.1-16.1c0-8.9,7.2-16.1,16.1-16.1
			C202.9,201.7,210.1,208.9,210.1,217.8z"/>
		<path class="st2" d="M198.2,217.8c0,2.3-1.9,4.2-4.2,4.2c-2.3,0-4.2-1.9-4.2-4.2c0-2.3,1.9-4.2,4.2-4.2
			C196.3,213.6,198.2,215.5,198.2,217.8z"/>
		<rect x="173.6" y="216.2" class="st2" width="40.8" height="3.1"/>
	</g>
	<rect x="61.9" y="301.6" class="st0" width="158.4" height="7"/>
	<path class="st1" d="M243.8,136c0-1.2-0.7-2.2-1.8-2.6c0-0.7-1-1.5-2.4-1.8c-12.1-1.8-24.3-1.3-35.9,1.5c-1.3,0.3-2.2,1.1-2,1.8
		c0,0,0,0,0,0c0.1,0.5,0.6,0.8,1.4,0.9c-1.4,0.2-2.4,1.4-2.4,2.9v0.5c0,0.6,0.5,1.1,1.1,1.1h0v3.8h40.6v-3.8h0
		c0.6,0,1.1-0.5,1.1-1.1v-0.5c0-0.3-0.1-0.6-0.2-0.9C243.6,137.3,243.8,136.7,243.8,136z M238.3,135.6c0,0,0,0.1,0,0.1h-33.9
		c0,0,0,0,0,0C215.6,133.6,227.1,133.5,238.3,135.6z"/>
	<path class="st0" d="M239.4,135.7c0,0.9,0.7,1.6,1.6,1.6c0.9,0,1.6-0.7,1.6-1.6c0-0.9-0.7-1.6-1.6-1.6
		C240.1,134.1,239.4,134.8,239.4,135.7z"/>
</g>
</svg>
