<?xml version="1.0" encoding="utf-8"?>
<!-- Generator: Adobe Illustrator 22.1.0, SVG Export Plug-In . SVG Version: 6.00 Build 0)  -->
<svg version="1.0" id="图层_1" xmlns="http://www.w3.org/2000/svg" xmlns:xlink="http://www.w3.org/1999/xlink" x="0px" y="0px"
	 viewBox="0 0 35 170" enable-background="new 0 0 35 170" xml:space="preserve">
<g>
	<g opacity="0.5">
		<g>
			<path d="M28.1,157.9c5.9,1.7,5.9,4.6,0.1,6.3c-5.8,1.7-15.3,1.7-21.2,0c-5.9-1.7-5.9-4.6-0.1-6.3
				C12.7,156.2,22.2,156.2,28.1,157.9z"/>
		</g>
	</g>
	<g>
		<g>
			<path fill="#DAD9D9" stroke="#626161" stroke-width="0.5" stroke-linecap="round" stroke-miterlimit="1" d="M21.4,151.5l-0.1,7.9
				c0,0.6-0.4,1.1-1.1,1.6c-1.5,0.9-4,0.9-5.5,0c-0.8-0.4-1.2-1-1.2-1.6l0.1-8c0,0.6,0.4,1.2,1.2,1.6c1.5,0.9,4,0.9,5.5,0
				C21.1,152.7,21.4,152.1,21.4,151.5L21.4,151.5z"/>
		</g>
	</g>
	<g>
		<g>
			<path fill="#EDEDED" stroke="#626262" stroke-width="0.5" stroke-linecap="round" stroke-miterlimit="1" d="M20.3,149.9
				c1.5,0.9,1.5,2.3,0,3.2c-1.5,0.9-4,0.9-5.5,0c-1.5-0.9-1.5-2.3,0-3.2C16.3,149,18.7,149,20.3,149.9z"/>
		</g>
	</g>
	<path fill="#DAD9D9" stroke="#626161" stroke-width="0.5" stroke-linecap="round" stroke-miterlimit="1" d="M23.1,12.7
		c-3,1.8-8,1.8-11,0c-1.5-0.9-2.3-2.1-2.3-3.2L9.6,25.4c0,2.5,4,5.2,6.3,6.6v118.8h0c0,0.8,0.7,1.5,1.5,1.5c0.8,0,1.5-0.7,1.5-1.5h0
		V31.9c2.3-1.4,6.2-4.1,6.2-6.5l0.1-15.9C25.4,10.7,24.6,11.8,23.1,12.7z"/>
	<g>
		<path fill="none" d="M25.4,9c0,12.1-0.1,3.8-0.1,15.9c0,1.2-0.8,2.3-2.3,3.2c-3,1.8-8,1.8-11,0c-1.5-0.9-2.3-2.1-2.3-3.2L9.7,9
			c0,1.2,0.8,2.3,2.3,3.2c3.1,1.8,8,1.8,11,0C24.6,11.3,25.4,10.2,25.4,9z"/>
	</g>
	<g>
		<g>
			<path fill="#D81E06" stroke="#D81E06" stroke-width="0.5" stroke-linecap="round" stroke-miterlimit="10" d="M25.4,9l-0.1,15.9
				c0,1.2-0.8,2.3-2.3,3.2c-3,1.8-8,1.8-11,0c-1.5-0.9-2.3-2.1-2.3-3.2L9.7,9c0,1.2,0.8,2.3,2.3,3.2c3.1,1.8,8,1.8,11,0
				C24.6,11.3,25.4,10.2,25.4,9L25.4,9z"/>
		</g>
	</g>
	<g>
		<g>
			<path fill="#FC4B3D" stroke="#D81E06" stroke-width="0.5" stroke-linecap="round" stroke-miterlimit="10" d="M23,5.8
				c3.1,1.8,3.1,4.6,0,6.4c-3,1.8-8,1.8-11,0c-3.1-1.8-3.1-4.6,0-6.4C15,4,19.9,4,23,5.8z"/>
		</g>
	</g>
</g>
</svg>
